<svg class="zn-topo" aria-hidden="true"
   xmlns="http://www.w3.org/2000/svg"
   viewBox="0 0 4000 2000"><g
     transform="matrix(1.3333333,0,0,-1.3333333,0,2000)"><g
       transform="scale(0.1)"><g
         transform="scale(1.84049)"><path
           class="topo-bg"
           d="M 16300,0 H 0 V 8150 H 16300 V 0" /></g><g
         transform="scale(1.27214)"><path
           class="topo-accent topo-a-1"
           d="m 9351.21,423.224 c -29.48,261.059 50.94,483.599 238.97,661.406 43.7,41.35 87.25,83.02 130.72,124.6 90.95,87.02 185.04,176.94 279.8,263.18 222.4,202.49 456.2,423.85 660.2,670.84 154.1,186.61 327.6,412.93 445,676.58 54.8,123.02 82.5,245.73 82.4,364.66 -0.2,166.02 -63.9,322.13 -119.3,439.66 -66.6,140.7 -132.8,291.47 -149.2,451.64 -24.2,237.98 15.4,434.66 121.3,601.23 184.6,290.36 406.2,489.02 677.5,607.38 80.9,35.22 149.6,53.34 209.3,53.34 121,0 204.1,-74.42 272.8,-231.78 40.9,-94.11 52.8,-204.83 64.3,-311.93 1.6,-15.57 3.3,-31.05 5,-46.43 8.2,-72.15 14.8,-145.81 21.2,-217.03 8.8,-96.54 17.8,-196.36 30.7,-294.62 45,-343.44 196.2,-594.67 462,-768 326.6,-213.11 679.8,-359.32 1109.8,-513.31 158,-56.6 321.4,-104.16 479.4,-150.06 157.7,-45.99 320.9,-93.39 477.8,-149.67 260.8,-93.62 453.5,-238.03 589,-441.54 84.3,-126.72 134.2,-268.84 175.4,-403.58 24.9,-81.28 49.2,-162.64 73.6,-244 72.7,-243.05 147.9,-494.44 236.6,-737.968 37.9,-103.842 81,-207.368 122.6,-307.517 69.7,-167.512 141.8,-340.766 190.3,-518.4964 0.2,-0.62948 0.4,-1.179122 0.5,-1.8086 h 61.1 c -1.6,5.81883 -3,11.6346 -4.6,17.5302 -49.6,181.5048 -122.4,356.4878 -192.8,525.8078 -41.4,99.519 -84.2,202.416 -121.6,304.999 -88.1,241.873 -163,492.323 -235.5,734.593 -24.4,81.52 -48.8,162.95 -73.7,244.31 -42.6,139.14 -94.2,286.14 -182.8,419.22 -142.8,214.52 -345.1,366.47 -618.3,464.49 -158.6,56.84 -322.6,104.55 -481.2,150.7 -157.1,45.75 -319.7,92.99 -476,149.04 -426,152.58 -775.7,297.21 -1097.6,507.17 -253.8,165.55 -392.1,396.19 -435.5,725.89 -12.7,97.06 -21.6,196.27 -30.3,292.21 -6.4,71.55 -13.1,145.56 -21.4,218.35 -1.7,15.27 -3.4,30.64 -5,46.1 -12,111.57 -24.3,226.94 -68.9,329.45 -114.8,263.34 -287.4,327.85 -559.7,209.09 -282.4,-123.17 -512.6,-329.22 -703.7,-629.86 -113.4,-178.35 -156,-387.47 -130.3,-639.4 17.2,-169.55 85.8,-325.75 154.5,-471.09 52.8,-111.86 113.4,-260.04 113.6,-414.19 0.1,-110.44 -25.9,-224.9 -77.2,-340.29 -114.6,-257.05 -285,-479.35 -436.5,-662.9 -201.7,-244.08 -433.7,-463.71 -654.45,-664.71 -95.27,-86.71 -189.6,-176.95 -280.87,-264.2 -43.39,-41.51 -86.78,-83.02 -130.49,-124.36 C 9347.36,936.614 9260.81,697.253 9292.49,416.546 9307.5,282.989 9338.47,147.154 9386.98,0 h 62.25 c -50.86,150.534 -82.85,288.255 -98.02,423.224" /></g><g
         transform="scale(1.35792)"><path
           class="topo-accent topo-a-2"
           d="m 2444.55,6246.46 c 92.9,-215.83 220.52,-414.62 321.34,-563.71 157.04,-232.24 277.64,-504.1 368.7,-831.07 99.51,-357.34 236.32,-689.48 406.63,-987.2 183.45,-320.68 387.77,-624.6 581.26,-905.32 217.74,-315.85 464.54,-673.83 645.45,-1062.36 54.56,-117.17 104.78,-238.46 153.35,-355.84 28.38,-68.56 57.73,-139.48 87.67,-208.92 l 12.53,-29.17 c 59.91,-139.55 121.86,-283.89 232.69,-403.994 114.42,-124.087 262.17,-148.242 391.57,-155.46 90.07,-5.008 181.52,-3.607 269.9,-2.281 29,0.44 57.99,0.883 86.97,1.105 181.68,1.323 365.23,-18.045 542.86,-36.821 l 75.94,-7.954 C 6878.13,670.879 7145.89,626.179 7489.62,552.39 7787.94,488.321 8030.15,361.879 8209.47,176.447 8263.59,120.551 8312.93,62.006 8360.65,0 h 69.6 C 8373.32,76.2195 8314.77,147.506 8249.09,215.331 8062.04,408.788 7810.4,540.532 7501.18,606.885 7155.4,681.042 6885.84,726.11 6627.06,752.843 l -75.81,7.954 c -179.15,19 -364.31,38.662 -549.06,37.114 -29.11,-0.221 -58.23,-0.661 -87.36,-1.104 -87.48,-1.252 -177.93,-2.653 -266.01,2.284 -118.4,6.628 -253.05,28.13 -354.09,137.636 -104.35,113.183 -161.72,246.773 -222.44,388.243 l -12.57,29.31 c -29.79,69 -59.04,139.7 -87.36,208.11 -48.79,117.9 -99.25,239.78 -154.32,358.05 -182.88,392.8 -431.1,752.84 -650.09,1070.53 -192.79,279.69 -396.36,582.44 -578.77,901.34 -168.01,293.66 -303.04,621.53 -401.29,974.41 -92.72,332.88 -215.77,610.07 -376.26,847.39 -99.43,147.06 -225.23,342.97 -316.29,554.5 -114.48,265.99 -175.58,566.73 -192.28,946.47 -11.97,271.75 -2.91,537.01 26.92,788.37 21.85,184.02 43.17,349.73 83.23,514.3 109.52,449.99 288.35,770.02 562.79,1007.11 240.94,208.18 561.36,240.71 857.08,87.12 149.56,-77.69 277.52,-190.68 382.98,-290.92 77.36,-73.55 154.56,-149.98 229.23,-223.84 145.94,-144.39 296.83,-293.72 456.95,-429.87 138.15,-117.47 326.46,-263.32 558.07,-348.93 202.85,-74.95 405.87,-93.2 603.39,-54.22 237.31,46.84 463.91,124.88 683.05,200.35 248.25,85.49 467.57,106.21 670.55,63.34 218.86,-46.21 445.76,-259.79 446.71,-537.23 0.44,-123.51 -29.75,-238.89 -62.45,-345.22 C 7755.68,7496.32 7694.19,7349.6 7634.69,7207.75 7598.24,7120.8 7560.53,7030.9 7526.58,6941 7405.96,6620.92 7338,6335.84 7318.91,6069.54 c -14.98,-209.17 -11.78,-393.27 9.84,-562.81 23.67,-185.73 55.41,-371.39 97.09,-567.61 75.78,-357.11 177.77,-698.8 276.75,-1014.83 124.82,-398.6 280.35,-798.48 462.18,-1188.41 l 10.08,-21.8 c 90.51,-194.2 184.03,-395.02 341.26,-559.61 144.93,-151.7 340.59,-204.94 523.45,-142.27 339.34,116.28 613.73,489.13 638.25,867.28 10.24,158.03 4.5,287.27 -17.96,406.8 -5.9,31.66 -6.19,63.55 -6.49,97.35 -0.29,37.93 -0.58,77.18 -9.72,115.76 -35.27,149.94 -10.01,296.17 23.94,458.1 60.83,289.74 207.59,571.09 448.82,860.16 47.7,57.14 95.5,114.18 143.3,171.19 112.3,133.91 228.5,272.37 340.7,410.31 168.6,207.31 286.3,410.19 360.1,620.23 52.7,149.94 82.1,314.33 89.9,502.54 1.6,40.14 2,80.73 2.5,120 0.8,81.01 1.7,164.77 13.5,246.08 22,152.29 115.1,265.09 292.9,355 81.4,41.19 166.3,79.54 248.5,116.62 124.4,56.11 253,114.16 373.5,183.84 468.2,270.6 822,489.1 1147.2,708.5 212.9,143.61 372.4,328.59 474.4,549.77 76.2,165.65 121.4,340.1 165.1,508.82 l 24,92.81 c 45.1,174.84 91.8,355.64 171.1,521.6 74.6,156.14 183.1,297.24 331.8,431.44 282.4,255 614.1,351.7 985.7,287.8 281.5,-48.5 515.2,-199.2 694.4,-447.8 128.4,-178.1 204.4,-381.17 239.2,-639.23 30,-221.99 3.8,-444.63 -23,-635.88 -24.5,-174.7 -71.7,-346.93 -126.3,-537.81 -58.1,-203.19 -153.4,-460.22 -376.9,-645.88 -169,-140.25 -376.4,-229.15 -559.4,-307.58 -336,-143.99 -652.3,-343.59 -967.2,-610.22 -108.7,-92.05 -228.8,-186.51 -377.8,-297.27 -224,-166.44 -472.4,-306.05 -712.6,-441.08 -30.5,-17.2 -61.1,-34.39 -91.6,-51.63 -334,-188.67 -564.9,-434.37 -705.9,-751.15 -109.9,-247.31 -171.9,-519.72 -194.9,-857.24 -6.2,-91.59 8.6,-182.18 22.8,-269.77 2.8,-16.81 5.5,-33.61 8.1,-50.41 37,-239.74 148.4,-456.12 331.1,-643.1 134.8,-137.85 296.1,-233.37 436,-308.63 159.2,-85.57 340.1,-156.78 569.1,-224.02 119.4,-35.05 242.1,-64.29 360.7,-92.64 139.3,-33.21 283.4,-67.6 421.8,-111.34 322.3,-101.78 517.1,-308.35 595.6,-631.63 28.3,-116.14 51.2,-235.58 73.2,-351.2 17.8,-93.16 36.2,-189.48 57.3,-283.75 76.4,-340.22 193.2,-664.761 347.2,-964.706 l 21.9,-42.49 c 65.6,-127.548 133.5,-259.442 187.7,-394.4254 7.3,-17.8237 13.8,-35.5697 19.9,-53.3186 h 58.2 c -8,24.6701 -16.7,49.4149 -26.7,74.3037 -55.3,137.3453 -123.7,270.4153 -190,399.0683 l -21.8,42.418 c -151.9,295.745 -267,615.87 -342.4,951.46 -20.9,93.37 -39.2,189.25 -56.9,281.97 -22.2,116.28 -45.2,236.47 -73.7,353.92 -82.4,339.05 -295.4,564.99 -632.9,671.54 -140.4,44.34 -285.4,78.95 -425.7,112.38 -117.9,28.21 -240,57.29 -357.9,91.98 -225.3,66.13 -402.8,135.87 -558.5,219.6 -136.3,73.28 -293,166.06 -422.6,298.62 -176.9,181.01 -280.2,381.37 -315.9,612.55 -2.6,16.97 -5.4,33.93 -8.2,50.87 -13.8,84.45 -28,171.81 -22.2,256.94 22.6,330.76 83,597.15 190.3,838.29 135.9,305.44 359.1,542.7 682.4,725.32 30.5,17.22 61,34.38 91.5,51.56 241.7,135.87 491.6,276.36 718.4,444.89 150.1,111.5 271,206.64 380.7,299.49 310.5,262.99 622.3,459.78 953.2,601.58 186.5,79.92 397.8,170.48 572.9,315.86 235.2,195.4 334.6,462.53 394.9,673.45 55.2,192.95 102.9,367.17 127.9,545.42 27.4,194.97 54,422.13 23.1,651.2 -36.1,267.51 -115.4,478.62 -249.3,664.52 -188,260.7 -433.6,418.8 -729.9,469.9 -389.2,67.1 -736.4,-34.3 -1032,-301.2 -154.1,-139.2 -266.9,-286 -344.7,-448.77 -81.6,-170.87 -129,-354.32 -174.8,-531.75 l -24,-92.79 c -43.1,-166.34 -87.6,-338.33 -161.8,-499.42 -97.5,-211.78 -250.6,-389.07 -455,-526.93 -324,-218.64 -676.8,-436.53 -1143.8,-706.45 -118.2,-68.3 -245.5,-125.75 -368.6,-181.32 -82.8,-37.34 -168.3,-75.92 -250.8,-117.66 -195.3,-98.81 -297.9,-224.88 -322.8,-396.77 -12.3,-85 -13.2,-170.68 -14,-253.53 -0.5,-38.85 -0.9,-79.02 -2.5,-118.29 -7.6,-182.57 -35.9,-341.63 -86.7,-486.27 -71.7,-203.84 -186.4,-401.26 -350.9,-603.5 -111.8,-137.62 -227.9,-275.92 -340,-409.65 -47.9,-57.06 -95.8,-114.13 -143.5,-171.31 -247.21,-296.26 -397.88,-585.57 -460.55,-884.48 -34.1,-162.42 -61.56,-321.52 -23.64,-482.5 7.66,-32.4 7.96,-66.87 8.25,-103.25 0.29,-34.83 0.52,-70.77 7.44,-107.37 21.58,-114.73 26.95,-239.55 17.08,-392.8 -19.95,-307.83 -250.16,-697.98 -600.84,-818.09 -233.45,-79.98 -403.49,62.96 -465.72,128.13 -150.89,157.97 -238.37,345.75 -331.01,544.59 l -10.17,21.79 c -180.79,387.73 -335.36,785.25 -459.45,1181.55 -98.53,314.71 -200.09,654.89 -275.42,1009.69 -41.31,194.71 -72.83,378.88 -96.32,563.05 -21.14,165.84 -24.26,346.32 -9.51,551.73 18.71,260.83 85.5,540.73 204.21,855.69 33.51,88.95 71.07,178.37 107.3,264.84 60.02,143.13 122.1,291.13 168.79,442.92 32.33,105.24 65.32,230.54 64.88,361.88 -1.03,305.67 -250.24,540.83 -490.61,591.58 -213.07,44.97 -441.96,23.66 -699.88,-65.16 -217.39,-74.86 -442.16,-152.28 -675.77,-198.38 -187.46,-36.99 -380.45,-19.55 -573.65,51.84 -223.5,82.59 -406.76,224.65 -541.45,339.2 -158.52,134.78 -308.68,283.34 -453.86,427.01 -74.86,74.09 -152.28,150.67 -230.02,224.61 -108.28,102.93 -239.93,219.07 -395.61,299.94 -316.5,164.41 -659.85,129.14 -918.53,-94.37 -283.63,-245.03 -468.09,-574.26 -580.49,-1036.12 -40.79,-167.62 -62.37,-335.09 -84.43,-520.94 -30.19,-254.39 -39.36,-522.68 -27.27,-797.46 17.02,-386.73 79.56,-693.72 196.8,-966.15" /></g><g
         transform="scale(1.37453)"><path
           class="topo-line topo-l-1"
           d="m 1996.57,6475.34 c -2.26,-174.72 17.42,-351.05 36.45,-521.58 l 7.67,-69.29 c 23.77,-217.47 49.73,-392.7 81.64,-551.41 63.55,-315.9 163.21,-578.45 304.67,-802.58 133.45,-211.42 297.96,-404.1 457.05,-590.47 l 46.4,-54.38 c 352.34,-413.76 665.62,-789.74 931.69,-1200.94 151.22,-233.68 338.72,-546.73 447.32,-895.79 60.15,-193.38 94.92,-345.79 112.78,-494.35 22.5,-187.05 12.14,-341.062 -32.64,-484.531 C 4334.82,634.471 4216.13,499.661 4026.83,397.808 3815.53,284.17 3583.96,209.526 3360.03,137.356 3296.57,116.912 3230.95,95.7427 3166.72,73.9881 3096.92,50.4177 3030.61,25.7559 2967.2,0 h 59.57 c 47.27,18.2619 96.18,35.9383 146.94,53.1828 64.06,21.6068 129.61,42.7759 193,63.2202 224.85,72.462 457.36,147.397 670.42,261.981 194.63,104.689 316.75,243.719 373.33,425.087 45.74,146.524 56.38,303.449 33.5,493.769 -18.02,149.87 -53.07,303.52 -113.62,498.21 -109.4,351.75 -297.88,666.4 -449.86,901.25 -266.8,412.28 -580.58,788.85 -933.43,1203.26 l -46.42,54.41 c -158.57,185.75 -322.58,377.84 -455.17,587.93 -139.99,221.81 -238.67,481.9 -301.68,795.15 -31.79,158.03 -57.64,332.62 -81.36,549.42 l -7.67,69.35 c -18.95,169.86 -38.54,345.5 -36.32,518.83 1.07,82.76 0.12,166.82 -0.79,248.12 -1.9,170.1 -3.87,345.97 12.5,518.88 9.57,101.15 16.24,204.4 22.66,304.24 3.15,48.58 6.28,97.14 9.73,145.66 13.03,182.44 39.83,379.82 81.92,603.39 56.38,299.32 139.25,554.66 253.36,780.63 148.8,294.62 328.26,518.71 548.61,685.06 255.44,192.84 551.29,225.41 833.02,91.73 278.23,-132.05 488.99,-352.79 692.82,-566.27 l 35.76,-37.43 c 231.26,-241.58 444.69,-454.33 715.29,-611.13 264.64,-153.34 546.46,-188.48 837.6,-104.49 188.21,54.31 366.63,136.31 539.15,215.61 53.39,24.56 108.58,49.92 163.22,74.09 160.65,71.04 334.33,139.44 515.77,158.68 244.59,25.96 473.03,-24.65 679.14,-150.43 175.84,-107.28 328.33,-246.62 475.8,-381.37 44.3,-40.48 90.06,-82.3 135.82,-122.69 l 12.08,-10.62 c 72.17,-63.75 146.82,-129.66 229.68,-182.77 116.04,-74.35 248.45,-100.69 429.24,-85.31 191.48,16.25 394.17,8.99 619.7,-22.24 111.16,-15.38 223.19,-36.03 331.59,-55.98 112.8,-20.78 229.5,-42.29 345.6,-57.92 40.7,-5.48 81.2,-11.56 121.8,-17.59 175.7,-26.25 357.4,-53.37 543.6,-30.57 186.4,22.8 339,53.21 480.2,95.68 326.3,98.11 615.1,256.78 854.5,399.04 271.6,161.39 457.9,332.22 586.1,537.66 117.8,188.71 196.9,397.9 273.4,600.18 l 22.9,60.59 c 105.2,276.62 229.2,484.42 390.2,654.02 274.5,289.2 584.7,447 948.4,482.6 175.2,17.2 338,2.5 497.9,-44.8 337.7,-99.8 596.7,-312.9 792.2,-651.47 168.9,-292.76 206.5,-620.46 221,-902.41 8.2,-159.88 0.9,-322.57 -6.2,-479.88 -5.3,-119.48 -10.9,-243.03 -9.6,-364.81 1.7,-173.48 -0.6,-359.12 -29.1,-541.26 -33.7,-214.04 -139.7,-384.4 -324.1,-520.85 -169.8,-125.62 -369.5,-194.81 -562.6,-261.75 -55.8,-19.33 -113.5,-39.31 -169.7,-60.4 -298.4,-111.92 -546.7,-242.35 -759.1,-398.73 -142.7,-104.96 -284.6,-215.48 -421.9,-322.36 -51,-39.73 -102,-79.43 -153.2,-118.97 -125.3,-96.87 -258.7,-187.56 -387.8,-275.28 -145.2,-98.68 -295.4,-200.74 -435.2,-312.35 -283,-225.94 -473.4,-502.54 -566,-822.1 -59.2,-204.31 -62.7,-401.78 -10.6,-586.96 71.8,-255.07 221,-460.58 443.2,-610.82 300.9,-203.34 643.5,-285.04 969.1,-343.02 33.1,-5.97 66.3,-11.57 99.5,-17.24 154.7,-26.34 314.6,-53.55 464.8,-106.95 243.2,-86.57 398.4,-236.08 474.5,-457.03 52.3,-151.9 70.3,-310.94 87.7,-464.74 l 2.5,-22.48 c 6.2,-54.7 11.7,-109.49 17.1,-164.27 12.3,-124.33 25.1,-253.03 47.2,-379.18 44.4,-253.32 126.1,-494.278 242.6,-716.171 68.1,-129.572 147.2,-255.362 223.8,-377.003 39.1,-62.129 79.6,-126.443 118.1,-190.391 36,-59.947 64.1,-120.1119 84.9,-180.425 h 23.3 c -21.5,64.0956 -51.2,128.117 -89.5,191.846 -38.6,64.167 -79.1,128.555 -118.3,190.755 -76.4,121.351 -155.3,246.777 -222.9,375.474 -115.6,219.93 -196.5,458.705 -240.4,709.695 -22,125.35 -34.7,253.61 -47,377.66 -5.5,54.85 -10.9,109.71 -17.2,164.56 l -2.5,22.41 c -17.5,154.96 -35.6,315.3 -88.8,469.47 -78.3,227.71 -238,381.65 -487.9,470.56 -151.9,54.05 -312.7,81.41 -468.3,107.96 -33.1,5.6 -66.3,11.2 -99.4,17.17 -323.2,57.55 -663.2,138.59 -960.7,339.61 -217.8,147.25 -364,348.64 -434.3,598.56 -51,181.13 -47.5,374.52 10.5,574.78 91.3,315.1 279.2,587.98 558.6,811.02 139.1,111.09 289,212.89 433.8,311.36 129.4,87.88 263.1,178.77 389,276.04 51.1,39.56 102.2,79.29 153.2,119.02 137.1,106.8 279,217.24 421.3,322.02 210.9,155.16 457.5,284.66 754,395.86 55.8,20.99 113.5,40.94 169.1,60.22 194.6,67.46 395.9,137.21 568.4,264.83 189.3,140.06 298.2,315.1 332.7,535.15 28.9,183.74 31.2,370.49 29.4,544.93 -1.2,121.16 4.3,244.41 9.7,363.58 7.1,157.85 14.4,321.07 6.2,482.04 -14.7,284.56 -52.8,615.5 -224,912.32 -198.3,343.6 -461.6,560 -804.9,661.6 -162.7,48 -328.3,63 -506.3,45.6 -369,-36.2 -683.8,-196.2 -962,-489.4 -160.9,-169.4 -290,-385.74 -394.9,-661.36 l -22.9,-60.63 c -76.1,-201.26 -154.8,-409.41 -271.4,-596.29 -126.3,-202.34 -310.2,-370.87 -578.7,-530.42 -238.3,-141.59 -525.6,-299.47 -849.7,-396.92 -139.9,-42.08 -291.4,-72.23 -476.5,-94.89 -183.3,-22.4 -363.5,4.48 -537.8,30.49 -40.6,6.07 -81.3,12.13 -122.1,17.63 -115.5,15.56 -231.9,37.01 -344.6,57.75 -108.6,20 -220.91,40.7 -332.44,56.15 -227.2,31.46 -431.49,38.79 -624.57,22.37 -175.77,-14.96 -303.96,10.34 -415.71,81.94 -81.41,52.19 -155.4,117.54 -226.99,180.74 l -12.07,10.64 c -45.62,40.25 -91.3,82.01 -135.54,122.41 -148.19,135.46 -301.55,275.53 -479.14,383.91 -210.25,128.34 -443.35,179.97 -692.82,153.5 -184.39,-19.55 -359.97,-88.66 -522.25,-160.43 -54.77,-24.23 -110.04,-49.62 -163.49,-74.19 -171.81,-78.98 -349.47,-160.65 -536.09,-214.49 -285.25,-82.32 -561.35,-47.83 -820.66,102.41 -268.13,155.35 -480.39,366.97 -710.46,607.32 l -35.74,37.41 c -205.2,214.92 -417.38,437.15 -699.28,570.91 -289.42,137.34 -593.22,103.96 -855.45,-94.02 -223.09,-168.41 -404.65,-394.98 -554.99,-692.7 -115.05,-227.85 -198.57,-485.1 -255.33,-786.49 -42.27,-224.42 -69.18,-422.61 -82.27,-605.93 -3.46,-48.56 -6.59,-97.18 -9.73,-145.8 -6.42,-99.68 -13.06,-202.78 -22.61,-303.57 -16.48,-174.07 -14.52,-350.56 -12.6,-521.21 0.91,-81.18 1.85,-165.09 0.8,-247.6" /></g><g
         transform="scale(1.40988)"><path
           class="topo-line topo-l-2"
           d="m 1836.24,4082.28 c 113.72,-151.35 256.69,-266.03 393.36,-370.48 55.25,-42.22 110.89,-83.95 166.53,-125.69 224.49,-168.44 456.64,-342.57 656.19,-546.48 227.54,-232.58 425.86,-491.25 589.38,-768.93 131.2,-222.86 223.71,-456 274.95,-693.12 66.27,-306.48 43.45,-546.64 -71.81,-755.877 C 3762.74,672.682 3634.2,557.709 3428.04,448.906 3298.28,380.46 3160.33,323.008 3026.9,267.399 2904.58,216.472 2778.09,163.772 2657.73,102.563 2595.01,70.7148 2534.92,36.4587 2477.13,0 H 2518 c 48.18,29.3659 97.81,57.2385 149.34,83.4819 119.65,60.7851 245.75,113.2741 367.71,164.1291 133.86,55.748 272.27,113.413 402.89,182.286 141.41,74.616 317.58,185.405 425.55,381.452 117.9,213.991 141.41,458.971 74.02,770.841 -51.75,239.32 -145.11,474.66 -277.48,699.43 -164.39,279.17 -363.75,539.26 -592.53,773.11 -200.69,205.06 -433.5,379.68 -658.64,548.58 -55.57,41.71 -111.18,83.39 -166.36,125.57 -135.51,103.58 -277.17,217.17 -389.25,366.37 -153.09,203.74 -227.35,444.9 -240.8,781.91 -14.25,356.68 -6.59,649.29 24.11,920.83 14.95,132.33 27.5,274.75 37.31,423.3 1.03,15.79 1.75,31.75 2.48,47.75 1.88,41.47 3.81,84.39 11.74,124.6 21.71,110.14 32.15,223.03 42.27,332.19 4.66,50.26 9.47,102.22 15.32,153.14 5.82,50.71 10.93,102.54 15.86,152.67 6.54,66.35 13.3,134.98 21.79,201.72 7.27,57.11 14.2,114.28 21.15,171.47 15.16,125.03 30.87,254.33 49.86,381.03 l 9.4,63.25 c 20.08,136.02 40.84,276.69 74.76,410.67 91.68,362.14 216.63,668.44 382.04,936.35 200.08,324.18 412.09,553.48 667.17,721.66 257.43,169.71 589.09,170.11 844.93,1.07 226.35,-149.58 408.94,-348.64 585.49,-541.16 l 46.44,-50.58 c 207.4,-225.29 398.94,-423.93 643,-573.24 186.37,-114.01 392.82,-158.18 596.95,-127.77 218.92,32.62 412.5,137.28 556.66,224.82 25.75,15.64 51.48,31.33 77.19,47.01 123.89,75.57 251.99,153.7 381.54,224.09 223.37,121.34 463.27,192.16 733.36,216.53 135.05,12.2 274.21,9.47 425.57,-8.26 217.82,-25.54 419.97,-122.7 600.83,-288.84 213.21,-195.81 460.97,-352.09 757.45,-477.79 306.05,-129.74 591.32,-233.49 872.08,-317.12 230.8,-68.77 423.9,-108.91 607.8,-126.4 162.5,-15.45 331.6,-5.05 532.3,32.76 182.6,34.4 350.7,99.21 476.8,151.8 219.9,91.77 408.6,204.26 576.9,343.88 220.7,183.07 361.2,421.37 469.4,630.35 92.6,178.76 194,367.94 325,543.31 175.4,234.85 389.2,421.55 635.6,554.75 252.3,136.4 525,203.2 810.5,197.6 198.6,-3.6 382.9,-45.9 563.2,-129 174.3,-80.4 329.3,-196.9 488.1,-366.6 230.1,-245.94 374.1,-556.98 453.3,-978.86 28.5,-152.73 49.3,-307.46 61.6,-459.92 15.5,-191.35 44.8,-380.64 78.8,-590.48 8.7,-53.94 18.8,-108.5 28.5,-161.27 13.5,-73.07 27.4,-148.61 38,-223.46 21.2,-150.17 23.7,-277.68 7.2,-389.84 -34.8,-237.41 -179.2,-435.43 -441.5,-605.33 -206.4,-133.67 -446.6,-210.2 -658.5,-277.74 -421.3,-134.26 -743.8,-293.27 -1014.7,-500.4 -283.1,-216.5 -591.9,-444.68 -971.5,-718.06 -241.3,-173.81 -400.4,-333.47 -515.8,-517.69 -123.4,-197.09 -169.5,-397.9 -136.8,-596.92 41,-249.76 187.8,-443.57 436.5,-576.03 256,-136.4 538.2,-178.88 805.2,-210.73 142.9,-17.02 282.5,-34.68 418.5,-62.98 168,-34.9 306.7,-100.3 423.8,-199.81 199.2,-169.16 241.6,-398.4 257.8,-620.9 8.2,-112.92 7.1,-228.25 6.1,-339.82 -1.2,-121.5 -2.4,-247.18 8.4,-371.02 10,-116.12 21.4,-247.76 54.4,-370.96 64.2,-240.09 167.9,-455.357 308.4,-639.983 69,-90.575 144.2,-178.457 217,-263.357 57.2,-66.745 116.3,-135.755 171.9,-205.55 52.9,-66.388 86.5,-132.9187 105.7,-197.89 h 22.1 c -20.9,73.4106 -57.8,144.197 -111.2,211.366 -55.8,70.077 -115,139.232 -172.3,206.118 -72.7,84.687 -147.7,172.284 -216.2,262.362 -138.8,182.358 -241.4,395.144 -304.9,632.534 -32.4,121.36 -43.7,252.01 -53.7,367.2 -10.7,122.85 -9.5,247.96 -8.3,368.97 1,111.99 2.2,227.82 -6.1,341.59 -16.6,227.25 -60.1,461.46 -265.3,635.73 -120,101.92 -261.7,168.81 -433.3,204.48 -136.8,28.44 -276.9,46.18 -420.3,63.27 -265,31.56 -545,73.69 -797.7,208.32 -242.5,129.21 -385.6,317.79 -425.5,560.58 -31.8,193.69 13.2,389.48 133.8,581.98 113.8,181.76 271.2,339.55 510.3,511.68 379.8,273.5 688.6,501.78 972,718.43 268.8,205.58 589.2,363.52 1008.1,497.03 213.2,67.93 454.8,144.94 663.6,280.17 267.8,173.43 415.4,376.32 451.1,620.24 16.7,114.21 14.4,243.75 -7.2,395.99 -10.6,75.3 -24.6,151.06 -38.1,224.34 -9.7,52.65 -19.7,107.11 -28.4,160.82 -33.9,209.38 -63.2,398.21 -78.6,588.76 -12.4,153.2 -33.2,308.69 -62,462.15 -79.9,426.1 -225.7,740.56 -458.7,989.59 -160.7,171.8 -317.8,289.8 -494.7,371.4 -183,84.4 -370.1,127.3 -571.7,131 -288.8,5.2 -565.4,-62 -821.1,-200.2 -249,-134.7 -465.2,-323.4 -642.5,-560.74 -131.9,-176.68 -233.8,-366.75 -326.8,-546.29 -107.3,-207.07 -246.3,-443.1 -464.1,-623.72 -166.6,-138.26 -353.5,-249.67 -571.5,-340.59 -125,-52.21 -291.8,-116.5 -472.5,-150.55 -198.7,-37.43 -366,-47.73 -526.5,-32.49 -182.3,17.35 -374.2,57.26 -603.6,125.6 -280.05,83.43 -564.61,186.9 -869.88,316.34 -294.21,124.73 -539.98,279.74 -751.35,473.87 -184.27,169.2 -390.39,268.23 -612.82,294.3 -152.78,17.91 -293.36,20.6 -429.82,8.31 -273.07,-24.62 -515.67,-96.26 -741.65,-219.02 -130.02,-70.63 -258.35,-148.92 -382.46,-224.61 -25.71,-15.68 -51.42,-31.37 -77.15,-46.99 -142.47,-86.5 -333.59,-189.91 -548.77,-221.97 -199.18,-29.68 -400.69,13.51 -582.75,124.88 -241.7,147.87 -432.14,345.39 -638.46,569.49 l -46.38,50.54 c -177.45,193.47 -360.92,393.52 -589.49,544.54 -262.91,173.8 -603.74,173.4 -868.28,-1.04 -257.77,-169.97 -471.84,-401.37 -673.63,-728.27 -166.55,-269.83 -292.34,-578.1 -384.57,-942.41 -34.19,-135.05 -55.04,-276.26 -75.2,-412.84 l -9.38,-63.17 c -19.05,-127 -34.75,-256.44 -49.95,-381.63 -6.94,-57.14 -13.89,-114.27 -21.14,-171.35 -8.53,-67.05 -15.3,-135.83 -21.84,-202.34 -4.93,-50.04 -10.04,-101.78 -15.84,-152.31 -5.86,-51.15 -10.69,-103.24 -15.37,-153.62 -10.06,-108.63 -20.46,-220.94 -41.95,-329.99 -8.23,-41.82 -10.22,-85.54 -12.12,-127.84 -0.72,-15.81 -1.43,-31.63 -2.46,-47.26 -9.79,-148.23 -22.31,-290.31 -37.22,-422.32 -30.82,-272.66 -38.52,-566.3 -24.24,-924.12 13.66,-341.65 89.24,-586.54 245.11,-794.01" /></g><path
         class="topo-accent topo-a-3"
         d="m 11250.5,15000 c -95.9,-138.7 -197.3,-269.1 -320,-378.1 -258.7,-229.5 -587,-331.9 -903.2,-408.5 l -6.5,-1.5 c -266.35,-64.5 -541.73,-131.1 -767.7,-324 -116.9,-99.7 -227.35,-208 -334.15,-312.7 -79.43,-77.9 -161.55,-158.4 -245.2,-234.3 -181.75,-164.8 -345.78,-278.4 -516.15,-357.3 -247.23,-114.6 -488.15,-114.3 -736.58,1 -252.62,117.3 -467.6,299.9 -676.5,574.9 -219.05,288.4 -457.15,638.9 -562.22,1052.6 -17.3,68 -27.95,165.5 19.55,243.4 35.65,58.4 100,98.4 191.32,118.9 166.9,37.4 332.03,27 515.1,10.9 89.63,-7.9 182.75,-22.8 272.83,-37.2 33.07,-5.2 66.1,-10.5 98.97,-15.5 101.4,-15.3 204.4,-32.8 304.03,-49.7 86.6,-14.8 176.12,-30 264.5,-43.7 131.15,-20.4 283.4,-43.3 430.87,-56.4 174.6,-15.5 403.13,-20.2 622.38,82.1 79.25,37 147.72,83.2 208.02,135.1 h -123.82 c -35.85,-24.6 -74.15,-47.1 -115.83,-66.5 -203.1,-94.7 -418.87,-90 -584.12,-75.3 -145.23,12.9 -296.05,35.6 -426.03,55.7 -87.85,13.7 -177.12,28.9 -263.45,43.6 -84.7,14.4 -171.8,28.9 -258.57,42.5 H 6248.72 c -47.27,-27 -84.65,-61.8 -110.92,-104.9 -48.5,-79.5 -58.3,-183.9 -28.33,-301.8 108.43,-426.8 351.68,-785.4 575.35,-1079.7 216.63,-285.2 440.58,-475.1 704.73,-597.7 269.57,-125.1 531.1,-125.5 799.47,-1.1 177.5,82.3 347.5,199.8 535.03,369.9 84.77,76.8 167.4,157.9 247.32,236.2 105.9,103.9 215.4,211.3 330.33,309.3 212.32,181.2 467,242.9 736.6,308.1 l 6.6,1.6 c 325.6,78.8 664.3,184.8 935.3,425.3 141.4,125.4 254,276 361.5,434.8 h -91.2" /><g
         transform="scale(1.57138)"><path
           class="topo-accent topo-a-4"
           d="m 11969.9,3417.91 c 105.9,-58.09 224.5,-94.72 384.7,-118.79 64.9,-9.76 131,-17.77 195.1,-25.53 165.7,-20.1 337.1,-40.88 499.1,-93.71 236.1,-76.94 413.8,-213.38 528,-405.5 37.3,-62.88 61.6,-141.15 72.2,-232.73 7.9,-69.68 14.7,-144.52 9.4,-219.61 -4.7,-69.05 -12.7,-139.37 -20.4,-207.4 -5.9,-52.06 -12,-105.77 -16.7,-158.78 -16.3,-185.95 -28.1,-354.02 -6.3,-527.5 20.9,-166.67 75.5,-326.91 167,-489.757 62.7,-111.877 155.7,-213.062 292.6,-318.512 234.9,-180.922 517.6,-320.735 864.1,-427.394 151.1,-46.52 304.6,-39.455 483,22.274 l 4.2,1.464 c 154.4,53.456 314,108.63 481.6,98.448 139.3,-8.465 233.4,-54.476 296.2,-144.777 34.6,-49.765 46,-99.7857 32,-140.641 C 16232,18.9001 16226.6,9.10078 16219.9,0 h 55.2 c 2,4.51931 4.2,9.03614 5.7,13.7469 19.2,55.8724 5.7,121.1661 -37.9,183.9771 -70.9,101.886 -179.6,155.914 -332.4,165.206 -177,10.883 -341.3,-46.011 -500.2,-100.932 l -4.2,-1.464 c -168.4,-58.291 -312.4,-65.164 -453.4,-21.826 -341,105.004 -618.7,242.206 -849,419.63 -131.6,101.312 -220.6,197.916 -280.1,303.938 -88.4,157.314 -141,311.764 -161.2,472.134 -21.1,168.77 -9.5,334.1 6.5,517.19 4.7,52.37 10.7,105.89 16.6,157.57 7.7,68.53 15.8,139.43 20.7,209.49 5.4,79.04 -1.5,156.49 -9.8,228.53 -11.2,98.38 -37.7,183.15 -78.6,251.94 -120.3,202.44 -306.8,345.94 -554.3,426.59 -166.4,54.23 -340.1,75.31 -508.2,95.67 -63.6,7.72 -129.4,15.71 -193.6,25.37 -154.4,23.19 -268.1,58.16 -368.9,113.45 -106.2,58.28 -175.4,141.95 -200,241.98 -25.4,102.78 -1.5,213.73 69,320.87 74.3,112.84 166,211.01 280.3,300.07 167.1,130.2 335.5,264.3 498.3,394.01 87.6,69.73 175.1,139.48 262.9,208.98 217.4,172.07 468.3,311.31 767.2,425.67 37.8,14.45 75.5,28.75 113.3,43.03 152.3,57.65 309.7,117.26 461.3,185.2 248.3,111.38 446.9,251.17 607.1,427.42 130,142.98 204.4,307.43 221,488.8 15.6,169.43 -25.3,329.76 -67.5,464.23 -26.8,85.41 -58.1,170.53 -88.4,252.87 -38,102.89 -77.2,209.27 -107.2,316.03 -57.7,204.69 -103.1,386.11 -138.9,554.63 -44,207.72 -108.8,403.22 -192.5,581.08 -125,265.84 -310.1,497.03 -550.1,687.11 -116.2,91.99 -216,152.54 -314.3,190.57 -2.7,1.03 -5.3,1.97 -8,2.99 h -146.4 c 44.9,-13.91 90.5,-29.87 137.3,-47.95 93.6,-36.25 189.5,-94.54 301.8,-183.46 234.2,-185.44 414.7,-410.83 536.5,-669.89 82.1,-174.48 145.7,-366.43 189,-570.53 36,-169.54 81.6,-351.96 139.5,-557.69 30.6,-108.57 70.2,-215.86 108.4,-319.64 30.1,-81.77 61.2,-166.34 87.6,-250.59 40.8,-129.9 80.4,-284.4 65.6,-445.33 -15.6,-170.65 -85.9,-325.67 -208.6,-460.73 -155.7,-171.25 -349.2,-307.3 -591.4,-415.94 -150.2,-67.36 -307,-126.7 -458.6,-184.08 -37.9,-14.32 -75.7,-28.64 -113.5,-43.1 -303.5,-116.13 -558.5,-257.71 -779.7,-432.85 -87.8,-69.53 -175.5,-139.29 -263,-209.07 -162.8,-129.6 -331.1,-263.65 -497.9,-393.67 -118.6,-92.37 -213.7,-194.28 -290.9,-311.56 -78.2,-118.68 -104.3,-242.86 -75.6,-359.08 27.9,-113.47 105.2,-207.76 223.5,-272.68" /></g><g
         transform="scale(1.20871)"><path
           class="topo-accent topo-a-5"
           d="m 16300,12409.9 h -201.1 c -45.6,-17 -90.8,-34.9 -135.2,-54.7 -454.3,-202.8 -855.4,-522.8 -1226.2,-978.3 -56,-68.7 -111.1,-139.9 -164.4,-208.6 -100.7,-130.1 -204.8,-264.5 -318.1,-386.9 -174.6,-188.8 -389.7,-337.7 -657.6,-455.3 -339.3,-149 -660.7,-199.9 -982.4,-155.7 -227.1,31.2 -421.1,105.3 -593.1,226.5 -115.9,81.7 -176,172.4 -189.1,285.5 -13.4,115.4 41.7,206.4 100,302.8 l 7.3,12.1 c 46.5,77.2 102.1,151.3 155.8,222.9 52.1,69.6 106,141.5 152.8,217.5 159.5,258.8 214.1,524.5 162.5,789.7 -12.2,62.7 -29.1,123.5 -49.9,182.5 h -65.9 c 23.5,-62.7 41.7,-127.5 54.8,-194.5 48.5,-249.2 -3.4,-499.8 -154.3,-744.7 -45.3,-73.6 -98.4,-144.3 -149.7,-212.8 -54.6,-72.8 -111.1,-148.2 -159.2,-228.1 l -7.3,-12.1 c -61.2,-101.1 -124.5,-205.8 -108.7,-342.5 15.4,-132.2 83.7,-236.9 215.2,-329.6 180.3,-127 383.3,-204.6 620.4,-237.2 333.4,-45.8 665.5,6.6 1015.6,160.3 275.9,121.1 497.7,274.8 678.3,470 115.1,124.4 220.2,260 321.7,391.1 53,68.5 107.9,139.3 163.4,207.4 364.5,447.8 758.1,762 1203.2,960.7 100.5,44.8 204,81.8 311.2,112" /></g><g
         transform="scale(1.16623)"><path
           class="topo-line topo-l-3"
           d="m 16238.1,12861.9 c -372,-174.5 -710.8,-408.6 -1038.7,-635.4 -51.1,-35.3 -102.1,-70.6 -153.3,-105.7 -213.8,-146.6 -435,-298.2 -692.1,-382 -247.6,-80.6 -406.2,-44.3 -547.6,125.3 -69.9,83.9 -113.9,192.2 -149.9,287.1 -89,235.6 -186.5,479.1 -318.2,710.7 h -29.7 c 134.6,-234 233.5,-481 323.8,-719.9 36.7,-96.9 81.8,-207.6 154.3,-294.5 147.3,-176.8 319.3,-216.7 575.2,-133.4 260.7,84.9 483.4,237.6 698.8,385.3 51.1,35.1 102.2,70.4 153.2,105.7 339.2,234.5 689.8,477 1075.9,652.4 3.3,1.5 6.8,2.9 10.2,4.4 h -61.9" /></g><g
         transform="scale(1.65688)"><path
           class="topo-line topo-l-4"
           d="m 12291.8,3503.94 c 25.2,-12.68 50.6,-25.3 75.9,-37.91 174,-86.62 353.8,-176.18 512,-294.9 148.1,-111.19 314.6,-249.85 426.4,-435.68 61.7,-102.67 82.5,-216.37 63.3,-347.58 -13.4,-92.53 -42.2,-182.52 -69.9,-269.55 -26.5,-82.98 -53.9,-168.75 -68.2,-256.93 -13.1,-80.51 -27.4,-161.51 -41.1,-237.61 -25.1,-140.39 7.5,-268.58 38.8,-364.66 76,-233.52 244.2,-393.818 500,-476.442 268.7,-86.791 524.2,-55.769 739.1,89.626 176.9,119.742 205.3,241.906 104.8,450.606 -64,133.02 -146.9,258.44 -227,379.69 l -17.7,26.92 c -104.6,158.61 -223.2,338.35 -310.1,532.69 -83.8,187.04 -59.7,363.51 71.4,524.36 140.2,171.95 323.4,313.76 560.2,433.54 133.7,67.61 281.5,111.61 439.3,130.83 280.1,34.16 512,-16.13 709,-153.64 195.4,-136.32 308.6,-315.55 346.2,-547.98 37,-229.22 4.2,-458.87 -103,-722.74 -51.3,-126.39 -118.4,-247.46 -183.2,-364.49 -48.7,-87.87 -99,-178.76 -142.4,-271.29 -43.9,-93.49 -82.4,-185.83 -72.3,-287.47 9.2,-93.304 44.6,-187.879 105.2,-281.007 72.8,-112.019 156.9,-218.243 238.3,-321.025 41.8,-52.751 85,-107.251 126.1,-161.872 9.2,-12.25 18.5,-24.503 27.9,-36.755 49.3,-64.881 99.7,-131.2122 138.5,-202.671 h 20.7 c -40,75.9854 -93,145.697 -144.8,213.775 -9.3,12.191 -18.6,24.444 -27.9,36.696 -41.1,54.741 -84.5,109.423 -126.3,162.234 -81.1,102.421 -165,208.343 -237.4,319.636 -58.9,90.654 -93.3,182.393 -102.3,272.809 -9.6,96.98 28,186.79 70.7,277.87 43.1,91.98 93.3,182.57 141.8,270.14 65.2,117.57 132.5,239.07 184.2,366.48 108.6,267.12 141.6,499.97 104,732.64 -38.3,237.55 -154,420.74 -353.6,560.03 -200.8,140.2 -436.9,191.46 -721.6,156.77 -159.9,-19.48 -309.7,-64.11 -445.2,-132.65 -239.1,-120.94 -424.3,-264.33 -566.1,-438.28 -135.9,-166.69 -160.8,-349.51 -74,-543.43 87.6,-195.73 206.6,-376.13 311.5,-535.28 l 17.8,-26.98 c 79.7,-120.71 162.2,-245.58 225.8,-377.52 96.7,-200.86 70.9,-312.69 -98.6,-427.486 -210.2,-142.196 -460.3,-172.373 -723.5,-87.394 -249.9,80.753 -414.2,237.13 -488.3,464.79 -30.5,93.97 -62.5,219.33 -38,355.73 13.5,76.11 28,157.22 41,237.86 14.1,86.85 41.3,171.95 67.5,254.27 28,87.75 57,178.53 70.7,272.5 19.7,135.62 -1.8,253.25 -65.8,359.71 -113.4,188.49 -281.5,328.63 -431,440.86 -159.5,119.72 -340.2,209.64 -514.8,296.62 -25.3,12.61 -50.6,25.19 -75.9,37.9 -74,37.14 -158.1,82.65 -222.1,152.97 -41.6,45.84 -56.8,100.97 -41.5,151.24 21.9,71.9 53.6,138.67 94.2,198.46 71.4,105.1 153.1,200.43 230.6,289.06 158.2,181 345.9,329.64 574,454.39 149,81.47 307.8,149.59 461.3,215.5 148.2,63.61 301.5,129.38 446.1,207.2 304.1,163.54 521,340.67 682.9,557.43 133.4,178.58 192.3,352.88 180.1,532.78 -10.4,154.48 -64,308.18 -173.6,498.39 -157.7,273.57 -278.4,532.08 -369.1,790.3 -12.7,36.48 -25.2,73.07 -37.8,109.64 -43.9,128.08 -89.3,260.53 -146,387 -164.2,365.8 -405.8,669.98 -717.8,904.11 -40.6,30.42 -82.1,58.45 -124.6,84.4 h -35.6 c 51.1,-29.85 100.9,-62.75 149.3,-99.04 309.6,-232.27 549.2,-534.06 712.1,-897 56.5,-125.7 101.7,-257.75 145.5,-385.43 12.5,-36.61 25.1,-73.23 37.9,-109.76 90.9,-259.31 212.1,-518.83 370.4,-793.39 108.1,-187.66 160.9,-338.92 171.2,-490.48 11.9,-175.33 -45.8,-345.6 -176.5,-520.55 -160.2,-214.54 -375.3,-390.04 -676.9,-552.29 -144,-77.44 -296.8,-143.06 -444.7,-206.51 -154,-66.07 -313.1,-134.37 -462.8,-216.24 -230,-125.8 -419.4,-275.73 -579.1,-458.38 -77.8,-89.06 -159.8,-184.87 -231.9,-290.82 -41.6,-61.32 -74.2,-129.76 -96.6,-203.41 -17.2,-56.65 -0.6,-118.21 45.5,-168.95 66.1,-72.59 152,-119.09 227.4,-156.98" /></g><g
         transform="scale(1.12548)"><path
           class="topo-line topo-l-5"
           d="m 16233.7,13327.7 c -224.7,-99.4 -456.4,-198.1 -697.1,-263.7 -340.8,-92.9 -644.4,-39.4 -902.7,159.1 -43.7,33.6 -86.8,68.6 -129.1,104.6 h -41.4 c 50.4,-43.7 101.9,-85.7 154.3,-126 265.2,-203.8 576.7,-258.8 925.8,-163.7 262.6,71.6 513.6,181.9 756.5,289.7 h -66.3" /></g><g
         transform="scale(1.66776)"><path
           class="topo-line topo-l-6"
           d="m 16169.7,8062.28 c -65.2,24.13 -137,40.71 -219.3,50.66 -27,3.27 -54,6.41 -81,9.55 -234.5,27.25 -477,55.44 -690.6,169.87 -269.3,144.3 -417,344.25 -451.4,611.27 -4,30.64 -6.4,60.71 -7.9,90.47 h -18.1 c 1.6,-30.52 4,-61.37 8.1,-92.79 35.2,-273.29 186,-477.71 460.8,-624.97 216.7,-116.06 460.8,-144.43 697,-171.88 27,-3.14 54,-6.27 80.9,-9.53 81,-9.79 151.4,-26.05 215.3,-49.69 68.4,-25.32 117.7,-113.22 109.7,-195.89 -6.3,-64.72 -22.1,-133.22 -48.5,-209.47 -60.3,-175.03 -153.1,-351.62 -283.9,-539.84 -105.6,-152.08 -214.7,-309.37 -372,-426.08 -48.6,-36.08 -109.2,-72.64 -191.2,-70.79 -93.3,2.15 -166.8,47.24 -237.9,90.84 -188.3,115.51 -359.6,269.37 -523.6,470.34 -102.6,125.77 -194,273.83 -279.3,452.65 -14.5,30.41 -28.9,60.87 -43.3,91.33 -90.3,191.21 -183.6,388.95 -309.1,566.7 -197.4,279.75 -433.8,521.42 -703,719.07 h -30.6 c 275.9,-199.12 517.8,-444.51 719,-729.58 124.4,-176.46 217.4,-373.46 307.4,-563.98 14.4,-30.48 28.8,-60.97 43.3,-91.4 86,-180.15 178.2,-329.4 281.7,-456.3 165.3,-202.59 338,-357.74 528.1,-474.32 69.7,-42.77 148.8,-91.23 246.9,-93.5 2.1,-0.05 4.2,-0.07 6.3,-0.07 84.7,0 149.1,39.59 196,74.4 159.6,118.5 269.7,277 376.1,430.3 131.7,189.6 225.3,367.64 286.2,544.29 26.8,77.6 42.9,147.48 49.3,213.64 8.9,91.93 -44.4,186.22 -121.4,214.7" /></g><g
         transform="scale(1.84049)"><path
           class="topo-line topo-l-7"
           d="m 16300,7873.28 c -57.4,-23.44 -119.8,-46.09 -189,-68.64 -135.3,-44.07 -273.1,-78.9 -409.6,-103.5 l -31.3,-5.69 c -107.6,-19.67 -218.8,-40.03 -329.4,-29.87 -82.1,7.52 -164.3,26.66 -209.6,115.02 -30.2,58.98 -52.6,117.47 -68.5,178.79 -17.4,67.23 -34.8,130.37 -53.5,190.61 h -17.1 c 19.2,-61.45 37,-125.95 54.8,-194.76 16.1,-62.51 39,-122.1 69.8,-182.18 48.9,-95.41 135.9,-115.92 222.7,-123.86 112.8,-10.33 225.1,10.2 333.7,30.07 l 31.2,5.68 c 137.3,24.73 275.8,59.75 411.8,104.05 67.2,21.86 127.9,43.86 184,66.55 v 17.73" /></g><g
         transform="scale(1.84049)"><path
           class="topo-accent topo-a-6"
           d="m 11908.9,3007.18 c 86.3,-66.46 170.8,-120.64 258.3,-165.71 144.4,-74.29 293.8,-78.34 470.4,-12.7 84.1,31.26 165.8,69.51 244.8,106.48 59.7,27.95 121.4,56.85 183.4,82.32 141.5,58.21 295.3,115.12 460,137 15.3,2.02 30.5,4.19 45.7,6.38 63.9,9.17 130.1,18.66 194.9,15.14 357.6,-19.22 613.2,-150.77 781.3,-402.24 70.5,-105.27 113.3,-225.24 131,-366.61 7.3,-57.54 7.9,-115.95 8.6,-172.45 l 0.4,-28.26 c 2.2,-156.15 -39.9,-305.41 -83.2,-444.88 -21.8,-70.47 -47.6,-141.27 -72.5,-209.67 -28.7,-78.78 -58.3,-160.18 -82.5,-242.28 -22.2,-75.3 -44,-155.55 -46,-237.38 -3.5,-143.927 43.2,-281.443 151.3,-445.965 76.6,-116.492 169.1,-222.875 258.5,-325.836 33.1,-37.981 67.2,-77.264 99.9,-116.382 C 14963,124.695 15013.4,64.3298 15056.9,0 h 49.1 c -47.7,74.6001 -105.1,143.224 -161.5,210.65 -33,39.392 -67.3,78.838 -100.4,116.98 -88.6,101.875 -180.2,207.226 -255.2,321.437 -103.3,157.023 -147.8,287.26 -144.5,422.283 1.8,76.71 22.8,154.03 44.2,226.62 23.8,80.9 53.3,161.69 81.7,239.83 25.1,68.89 51.1,140.18 73.2,211.57 44.3,142.68 87.4,295.52 85,457.76 l -0.4,28.14 c -0.6,57.65 -1.3,117.26 -8.8,177.13 -18.6,147.89 -63.6,273.68 -137.7,384.43 -175.8,262.89 -441.7,400.38 -813,420.33 -68.8,3.68 -137,-6.06 -202.9,-15.51 -15,-2.15 -30.1,-4.32 -45.2,-6.32 -169.4,-22.49 -326.1,-80.44 -470.2,-139.7 -62.8,-25.82 -125,-54.94 -185.1,-83.09 -78.3,-36.64 -159.2,-74.54 -241.7,-105.2 -165.1,-61.4 -304.2,-58.02 -437.7,10.74 -85.3,43.92 -167.8,96.83 -252.1,161.76 -122.9,94.64 -262.3,201.89 -352.5,347.64 -72.7,117.42 -87.3,224.76 -44.8,328.19 52.6,128.17 142.2,240.3 266.2,333.29 135.5,101.67 284.1,177.96 437.1,253.53 50.3,24.89 101.8,49.61 151.7,73.53 148.6,71.35 302.4,145.12 446.2,233.08 230.2,140.84 450.6,314.97 693.6,547.97 90.1,86.25 185.3,171.02 291.3,259.14 118.5,98.52 242,113.92 357.2,44.51 152.9,-92.14 299.2,-216.18 446.9,-379.25 132,-145.49 247.4,-308.2 359.1,-465.54 43.6,-61.48 88.8,-125.04 134.3,-186.8 154.1,-209.02 290,-354.35 440.7,-471.22 207.4,-160.89 442,-278.93 697.2,-350.84 14.3,-4.04 28.2,-7.73 42.1,-11.41 v 42.57 c -10.3,2.78 -20.5,5.45 -31.1,8.42 -250.1,70.5 -480,186.17 -683.3,343.83 -147.6,114.46 -281,257.3 -432.8,463.17 -45.4,61.45 -90.4,124.86 -133.9,186.17 -112.3,158.34 -228.6,322.06 -362.1,469.38 -150.5,166.05 -299.8,292.58 -456.1,386.8 -131.5,79.17 -271.2,62.52 -404.2,-48.09 -106.8,-88.74 -202.7,-174.14 -293.4,-261.07 -240.8,-230.91 -459.1,-403.33 -686.7,-542.6 -142.1,-86.88 -294.8,-160.19 -442.6,-231.11 -50,-23.96 -101.6,-48.75 -152.2,-73.72 -154.7,-76.47 -305.1,-153.71 -443.4,-257.47 -130,-97.49 -224.1,-215.43 -279.6,-350.55 -47.2,-114.96 -31.1,-237.97 47.9,-365.64 94.1,-152.12 236.7,-261.81 362.4,-358.57" /></g><g
         transform="scale(1.84049)"><path
           class="topo-line topo-l-8"
           d="m 12486,3132.81 c 100.4,-16.24 200.6,4.74 294.7,27.57 79.6,19.3 158.8,44.31 235.4,68.46 106.8,33.68 217.2,68.49 329.9,88.29 16,2.81 32.1,5.69 48.2,8.56 54.2,9.67 110.1,19.67 165.7,27.64 84.9,12.17 175.4,14.6 284.4,7.59 352.1,-22.56 600,-128.07 780,-332.05 113,-128 185.2,-279.85 220.8,-464.23 23,-119.15 29.6,-243.52 20,-380.22 -9.7,-137.79 -38.6,-283.68 -93.8,-473.03 l -10,-34.23 c -51.4,-175.44 -104.5,-356.86 -98.3,-547.73 3.7,-113.56 38.2,-226.302 105.5,-344.64 86.1,-151.48 205.9,-282.37 321.9,-408.912 l 4.6,-5.053 C 15200.4,255.747 15308.6,137.41 15383,0 h 18.4 c -75.3,142.462 -186.3,263.952 -294.4,381.963 l -4.6,5.054 c -115.3,125.89 -234.6,256.073 -319.8,405.978 -65.8,115.949 -99.6,226.195 -103.3,336.975 -6.1,188.21 46.7,368.33 97.7,542.52 l 10,34.28 c 55.5,190.49 84.6,337.47 94.4,476.45 9.6,138.23 3.1,264.01 -20.3,384.52 -36.2,187.4 -109.7,341.79 -224.6,472.05 -183,207.43 -434.4,314.7 -791.1,337.54 -110.3,7.09 -201.7,4.62 -287.8,-7.73 -55.9,-8 -112,-18.02 -166.2,-27.72 -16.1,-2.85 -32.2,-5.73 -48.3,-8.56 -113.7,-19.97 -224.6,-54.95 -331.8,-88.78 -76.4,-24.08 -155.4,-48.99 -234.4,-68.18 -92.5,-22.42 -190.9,-43.06 -288.3,-27.31 -205.4,33.16 -357.7,132.66 -452.6,295.74 -53.7,92.24 -63.8,187.26 -30.1,282.42 32.9,92.75 94.6,172.48 194.3,250.9 142.2,111.83 306.1,194.91 464.6,275.27 37.8,19.12 75.5,38.25 113,57.74 205.8,107.13 405.9,227.64 577.2,332.18 l 41.5,25.42 c 132.7,81.39 270,165.55 421.4,216.86 145.4,49.24 256.4,58.88 371.4,32.22 144.9,-33.54 271.8,-104.17 399.6,-222.21 119.5,-110.52 218.5,-241.98 314.1,-369.13 31.5,-41.82 64,-85.06 96.8,-126.96 159,-202.95 300.7,-343.09 459.6,-454.44 210.2,-147.3 449,-257.17 730,-335.89 36.3,-10.18 73.2,-19.49 110.6,-27.95 v 16.87 c -35.9,8.19 -71.3,17.14 -106.2,26.92 -279.2,78.21 -516.4,187.32 -725,333.54 -157.6,110.38 -298.2,249.51 -456.2,451.14 -32.7,41.76 -65.2,84.94 -96.6,126.69 -96,127.74 -195.4,259.81 -316.1,371.33 -129.9,120.05 -259.2,191.91 -406.9,226.14 -149.4,34.58 -281.8,0.72 -380.3,-32.67 -153.2,-51.9 -291.2,-136.55 -424.7,-218.42 l -41.5,-25.4 c -171.1,-104.4 -370.8,-224.72 -576.2,-331.62 -37.4,-19.47 -75.1,-38.57 -112.8,-57.67 -159.3,-80.71 -323.9,-164.18 -467.3,-277.02 -102.3,-80.41 -165.7,-162.49 -199.6,-258.32 -35.5,-99.95 -24.9,-199.61 31.4,-296.25 97.4,-167.54 253.6,-269.7 464,-303.67" /></g><g
         transform="scale(1.48296)"><path
           class="topo-line topo-l-9"
           d="m 16279.4,10114.9 c 0,-0.3 0,-0.6 -0.1,-0.9 -4.5,-32.6 -9.2,-65.1 -14.1,-97.6 -12.9,-87.88 -26.4,-178.8 -33.1,-269.34 -3.2,-43.94 -18.8,-91.75 -42.7,-131.19 -45,-74.4 -124.5,-80.87 -236.3,-19.16 -114.3,63.07 -228.3,137.84 -338.7,222.19 -43,32.9 -86,66 -128.9,99.11 -84.7,65.45 -170.9,131.79 -258.8,196.89 h -34.1 c 95.4,-70.1 188.8,-142.2 280.7,-213.07 42.9,-33.14 85.8,-66.27 128.8,-99.19 111.2,-84.97 226.1,-160.27 341.3,-223.83 57.7,-31.86 104.2,-44.3 141.8,-44.3 62,0 99.4,34.12 121.5,70.74 25.5,42.11 42.1,93.24 45.6,140.29 6.7,89.8 20.1,180.33 33,267.86 4.8,32.6 9.6,65.2 14.1,97.8 0.2,1.2 0.4,2.4 0.6,3.7 h -20.6" /></g><g
         transform="scale(1.80707)"><path
           class="topo-line topo-l-10"
           d="m 16249,8300.71 c -52.9,-17.05 -105.8,-29.55 -159.2,-37.06 -119.5,-16.82 -224.1,-5.02 -325.2,37.06 h -40.6 c 114.6,-55.69 232.1,-72.81 368.1,-53.65 69.7,9.81 138.6,27.77 207.9,53.65 h -51" /></g><path
         class="topo-accent topo-a-7"
         d="m 4633,15000 c -111.85,-61.2 -218.4,-129.4 -319.2,-209.1 -296.43,-234.1 -564.03,-509 -795.38,-817 -286,-380.6 -513.27,-748.6 -694.75,-1124.7 -204.5,-423.9 -358.17,-874.6 -456.8,-1339.7 -60.32,-284.4 -109.67,-565.4 -146.67,-835.2 -41.3,-300.8 -77.23,-553.2 -118.48,-807.82 -58.82,-363.13 -127.82,-726.61 -187.57,-1034.28 -51.8,-266.78 -94.08,-529.47 -140.05,-820.6 -16.15,-102.35 -31.38,-204.85 -46.58,-307.38 -26.02,-175.39 -52.92,-356.75 -84.4,-533.85 -12.62,-71.02 -24.35,-142.14 -36.1,-213.24 -42.3,-256.45 -86.05,-521.63 -173,-774.6 -99.2,-288.46 -298.07,-458.88 -625.899,-536.36 -183.398,-43.3 -376.176,-62.02 -562.574,-80.12 -33.449,-3.23 -66.899,-6.47 -100.324,-9.88 L 39.7734,5545.62 c -13.1523,-1.3 -26.5507,-2.67 -39.7734,-4 v -76.05 c 15.6953,1.58 31.5469,3.21 47.1719,4.75 l 105.5511,10.58 c 33.347,3.37 66.699,6.6 100.05,9.85 188.875,18.32 384.2,37.27 572.524,81.78 350.453,82.79 572.803,274.22 679.753,585.27 89.05,259 133.32,527.38 176.12,786.9 11.7,70.82 23.38,141.65 35.95,212.33 31.68,178.2 58.65,360.1 84.75,536.02 15.15,102.27 30.33,204.55 46.48,306.7 45.85,290.38 88.02,552.38 139.57,817.95 59.85,308.23 128.98,672.43 187.98,1036.57 41.37,255.43 77.4,508.33 118.75,809.63 36.77,268 85.8,547.2 145.72,829.8 97.38,459.1 249.08,904.1 450.9,1322.4 179.35,371.7 404.08,735.5 687.1,1112.2 227.48,302.8 490.5,573 781.8,803.1 134.85,106.5 281.1,192.5 437.7,268.6 H 4633" /><path
         class="topo-line topo-l-11"
         d="m 3838.25,15000 c -97.1,-126.6 -190.23,-260.8 -278.93,-402.1 -370.05,-589.8 -650.97,-1083.6 -884.07,-1554 -217.25,-438.3 -384.33,-877.7 -496.58,-1306 -50.02,-190.8 -84.45,-390.1 -117.72,-582.7 -8.13,-47.1 -16.25,-94.1 -24.6,-141 -65.4,-367.9 -117.88,-669.9 -165.15,-950.4 -63.45,-376.5 -147.18,-755.28 -228.15,-1121.58 -22.4,-101.34 -44.83,-202.67 -66.83,-304.07 -23.55,-108.5 -46.5,-217.18 -69.47,-325.85 -81.93,-387.87 -166.65,-788.97 -279.1,-1176.15 -84.98,-292.6 -198.68,-625.13 -473.978,-868.78 -161.574,-143 -356.649,-221.8 -543.375,-285.62 C 141.121,5958.12 70.7969,5938 0,5919.92 v -31.2 c 74,18.7 147.547,39.61 219.945,64.35 189.703,64.85 388.055,145.08 553.578,291.58 281.347,248.97 396.827,586.35 482.977,883.03 112.77,388.27 197.6,789.9 279.65,1178.32 22.95,108.63 45.9,217.25 69.45,325.67 22,101.38 44.4,202.68 66.8,303.98 81.05,366.67 164.87,745.83 228.42,1123.05 47.28,280.5 99.73,582.4 165.15,950.1 8.33,47 16.48,94.1 24.6,141.2 33.18,192 67.48,390.6 117.15,580.2 111.75,426.2 278.1,863.7 494.43,1300.2 232.65,469.4 513.1,962.4 882.6,1551.3 92.52,147.5 189.85,287 291.52,418.3 h -38.02" /><path
         class="topo-line topo-l-12"
         d="m 3365.12,15000 c -107.5,-192.2 -197.92,-379.2 -275.42,-549 -99.08,-217 -209.33,-434.4 -315.93,-644.8 -39.05,-77 -78.07,-154 -116.65,-231.1 -268.37,-536.5 -503.42,-1024 -661.72,-1557.6 -83.85,-282.7 -144.05,-566.3 -198.58,-832.6 -37,-180.9 -70.15,-365.5 -102.2,-544 -27.72,-154.2 -56.35,-313.7 -87.37,-470.1 -78.8,-397.3 -175.35,-797.28 -268.73,-1184.08 l -17.57,-72.79 C 1210.72,8457.03 1115.77,8073.95 1010.6,7689.53 930.32,7396.1 826.621,7142.97 693.621,6915.68 542.445,6657.32 314.223,6463.65 0,6327.85 v -32.9 c 326.371,138.57 563.047,337.95 719.523,605.35 134.375,229.62 239.075,485.17 320.077,781.2 105.25,384.78 200.27,768.1 310.57,1225.27 l 17.58,72.81 c 93.45,387.09 190.07,787.37 269,1185.32 31.05,156.6 59.72,316.3 87.45,470.7 32.02,178.3 65.15,362.7 102.07,543.2 54.38,265.6 114.43,548.5 197.95,830.1 157.58,531.2 392.03,1017.4 659.75,1552.5 38.55,77.2 77.58,154.1 116.58,231.1 106.75,210.6 217.12,428.3 316.45,645.9 79.22,173.5 171.77,365 282.52,561.6 h -34.4" /><g
         transform="scale(1.84049)"><path
           class="topo-line topo-l-13"
           d="m 15306.2,520.242 c 101.8,-115.187 207.1,-234.34 288.6,-367.782 30.9,-50.638 57.4,-101.3315 79.7,-152.46 h 17.7 c -23.2,54.0617 -50.8,107.635 -83.5,161.098 -82.2,134.639 -188,254.336 -290.3,370.066 -48.5,54.821 -98.6,111.546 -145.5,169.029 -198.3,243.142 -272,473.187 -231.9,723.887 18.4,115.67 41.5,228.2 68.5,334.53 42.2,165.71 84.4,342.62 96.7,523.17 1.6,22.77 3.5,45.48 5.3,68.3 7.5,89.32 15.1,181.75 2.3,275.36 -6.5,48.03 -9,97.92 -11.5,146.14 -3,60.41 -6.1,122.84 -17.2,183.64 -5.8,32.12 -9.6,65.2 -13.1,97.16 -5,44.46 -10.1,90.43 -21.1,135.29 -9.6,38.97 -3.7,74.19 17.1,101.89 23.4,31.14 62.9,49.22 111.3,50.91 41.1,1.37 85.3,-3.71 128.1,-14.85 65.6,-17.09 131.2,-34.42 196.8,-51.75 231.7,-61.25 471.3,-124.56 709.8,-175.99 28.6,-6.16 57.3,-11.55 86,-16.55 v 16.7 c -27.5,4.86 -55.1,10.03 -82.5,15.93 -238.2,51.35 -477.6,114.62 -709.1,175.82 -65.6,17.34 -131.3,34.66 -196.9,51.78 -44.2,11.5 -90.1,16.78 -132.7,15.34 -53.4,-1.86 -97.4,-22.26 -123.8,-57.43 -23.5,-31.34 -30.6,-72.44 -20,-115.74 10.8,-43.82 15.9,-89.26 20.8,-133.19 3.6,-32.25 7.3,-65.59 13.3,-98.28 10.8,-59.74 13.9,-121.65 16.9,-181.5 2.5,-48.58 5,-98.81 11.6,-147.55 12.6,-91.82 4.9,-183.32 -2.3,-271.77 -1.9,-22.88 -3.8,-45.7 -5.4,-68.52 -12.2,-179.19 -54.2,-355.23 -96.2,-520.24 -27.2,-106.76 -50.3,-219.83 -68.9,-335.99 -40.8,-255.7 34,-489.875 235.5,-736.928 47.1,-57.757 97.3,-114.588 145.9,-169.52" /></g><path
         class="topo-line topo-l-14"
         d="m 2959,15000 c -57.45,-135.4 -112.25,-272 -165.6,-405.5 -51.38,-128.6 -104.5,-261.5 -159.3,-391.2 -139,-329 -293.9,-657.9 -443.7,-975.9 -27.4,-58.2 -54.83,-116.4 -82.15,-174.6 -238.28,-507.6 -397.25,-939 -500.3,-1357.5 -43.98,-178.6 -77,-363.7 -108.93,-542.7 -10.75,-60.4 -21.52,-120.7 -32.7,-180.9 -66.07,-355.8 -140.97,-759.1 -230.12,-1152.65 C 1133.57,9366.07 1014.02,8914.97 898.398,8478.75 801.648,8113.75 686.297,7725.7 499.023,7360.95 375.32,7120.05 210.023,6927.82 0,6780.32 v -36.94 c 222.25,151.7 396.273,351.54 525.723,603.67 188.597,367.32 304.527,757.25 401.722,1123.9 115.705,436.5 235.325,887.85 338.075,1341.37 89.28,394.08 164.23,797.78 230.35,1153.78 11.2,60.3 21.98,120.7 32.75,181.1 31.83,178.6 64.75,363.2 108.5,540.8 102.58,416.6 260.9,846.1 498.3,1351.9 27.33,58.2 54.75,116.4 82.15,174.5 149.93,318.3 304.95,647.5 444.2,977.1 54.93,129.9 108.1,263 159.53,391.7 54.85,137.2 111.17,277.7 170.35,416.8 H 2959" /><path
         class="topo-line topo-l-15"
         d="m 2518.85,15000 c -5.75,-17.2 -11.68,-34.3 -17.28,-51.7 -184.72,-573.4 -349.15,-1007.2 -533.17,-1406.5 -29.78,-64.6 -59.75,-129.2 -89.75,-193.7 -132.93,-286.2 -270.4,-582.1 -387.35,-881.4 -124.1,-317.7 -224.48,-656.8 -306.88,-1036.8 -59.25,-273.1 -106.77,-551.2 -146.67,-790.5 C 961.598,10182.8 851.422,9692.27 700.922,9139.7 689.547,9097.95 678.25,9056.12 666.945,9014.32 543.672,8558.12 416.195,8086.4 179.32,7660.83 126.57,7566.05 66.5977,7479.2 0,7399.87 v -46.35 c 77.0977,87.83 145.848,185.2 205.57,292.5 238.68,428.83 366.653,902.38 490.403,1360.36 11.3,41.8 22.574,83.57 33.949,125.32 150.773,553.58 261.148,1045.1 337.478,1502.7 39.85,238.9 87.3,516.6 146.4,789.1 82.05,378.4 181.97,715.9 305.5,1032.1 116.6,298.5 253.85,593.9 386.6,879.7 30,64.5 60,129.1 89.77,193.8 184.55,400.4 349.4,835.2 534.5,1409.8 6.63,20.6 13.58,40.8 20.4,61.1 h -31.72" /><path
         class="topo-line topo-l-16"
         d="m 4741.3,3023.4 c -294.08,517.6 -716.23,913.8 -1254.75,1177.7 -193.35,94.8 -427.48,191.2 -696.4,186.5 -229.55,-3.9 -391,-97.8 -508.15,-295.6 -108.13,-182.6 -150.7,-384.7 -191.88,-580.1 l -4.77,-22.6 c -18.15,-85.9 -35.4,-173.5 -52.1,-258.2 -63.35,-321.5 -128.9,-653.9 -256.55,-963.9 -93.75,-227.7 -217.73,-430.7 -368.5,-603.7 C 1083.42,1290.9 679.297,984.102 207.023,751.402 139.598,718.199 70.5,689.602 0,665.301 v -32 c 75.0469,25.398 148.547,55.601 220.25,90.898 C 696.098,958.602 1103.4,1268 1430.8,1643.5 c 152.95,175.5 278.65,381.4 373.67,612.1 128.78,312.7 194.63,646.7 258.28,969.7 16.67,84.5 33.9,172 52,257.7 l 4.77,22.7 c 40.68,192.9 82.73,392.5 188.3,570.8 111.3,187.9 264.7,277.1 482.83,280.8 262.42,4.1 492.6,-90.2 682.72,-183.4 533,-261.2 950.8,-653.3 1241.83,-1165.5 189.55,-333.6 395.87,-782.8 308.32,-1299.7 C 4982.22,1464.8 4865.2,1253 4675.67,1079.1 4467.2,887.801 4207.67,763.699 3978.7,654.398 3637.92,491.602 3279.9,309.5 2977.57,33.6016 2965.5,22.6016 2953.82,11.1992 2941.95,0 h 43.97 c 4,3.69922 7.83,7.5 11.85,11.1992 C 3297.05,284.301 3652.85,465.199 3991.6,627 c 230.87,110.301 492.55,235.301 704.32,429.7 194.6,178.6 314.8,396.2 357.25,646.9 89.15,526.4 -119.85,981.8 -311.87,1319.8" /><path
         class="topo-line topo-l-17"
         d="m 2095.07,15000 c -17.67,-59.8 -35.05,-119.6 -52.1,-178.3 -71.57,-247.1 -145.57,-502.7 -241.8,-746.7 -73.82,-187.2 -154.35,-377.2 -239.35,-564.8 -54.1,-119.4 -111.47,-239.9 -166.92,-356.4 -147.75,-310.2 -300.5,-631 -407.83,-965.4 -84.172,-262.2 -154.097,-547.3 -220.023,-897.3 -29.449,-156.3 -56.977,-315.6 -83.602,-469.6 C 617.297,10438.7 548.898,10042.9 445.297,9660 429.598,9601.98 414,9543.9 398.398,9485.88 332.922,9242.22 265.25,8990.3 190.621,8744.5 131.75,8550.6 69.2227,8381.38 0,8229.68 v -70.78 c 80.7969,167.65 152.473,356.42 219.371,576.75 74.777,246.28 142.527,498.42 208.051,742.32 15.601,58.03 31.176,116.06 46.898,174.08 103.953,384.25 172.5,780.85 238.75,1164.35 26.602,153.8 54.102,313 83.5,469 65.727,348.8 135.328,632.7 219.1,893.7 106.7,332.4 259.03,652.3 406.33,961.6 55.52,116.7 112.95,237.2 167.17,356.9 85.23,188.1 165.95,378.6 239.93,566.2 96.75,245.4 170.97,501.6 242.75,749.4 17.85,61.6 36.02,124.1 54.57,186.8 h -31.35" /><path
         class="topo-line topo-l-18"
         d="m 1544.6,15000 c -81.85,-344.2 -184.33,-724.2 -339.55,-1082.6 -101.05,-233.3 -218.952,-464.5 -332.952,-688.2 -58,-113.8 -117.977,-231.4 -175.051,-348 -199.199,-406.8 -337.977,-819.9 -412.5,-1227.8 -38.149,-208.8 -71,-421.6 -102.774,-627.5 -9.425,-61 -18.851,-122 -28.402,-183 C 112,10579 63.3984,10294.7 0,10001.1 v -138.18 c 78.2734,340.88 135.473,671.58 183.07,975.28 9.551,61 19,122.1 28.43,183.1 31.723,205.6 64.547,418.2 102.621,626.6 74.027,405.2 211.926,815.6 409.879,1219.9 56.973,116.4 116.898,233.9 174.848,347.6 114.222,224 232.322,455.8 333.752,689.9 157.22,363 260.5,747.4 342.92,1094.7 h -30.92" /><path
         class="topo-line topo-l-19"
         d="m 865.797,2509.6 c 117,275.4 158.523,570.8 126.953,903.1 C 948.32,3879.9 736.848,4228 364.172,4447.3 249.445,4514.8 123.648,4551.9 0,4579.9 v -31 c 119.121,-27.3 239.75,-63.4 349.023,-127.7 363.825,-214.1 570.348,-554.4 613.797,-1011.5 31.078,-327 -9.699,-617.6 -124.672,-888.2 C 660.25,2102.9 378.621,1779.1 0,1555.4 v -35.2 c 392,227.2 682.871,559 865.797,989.4" /><path
         class="topo-line topo-l-20"
         d="m 1500.4,3391.2 c -2.55,36.5 -4.85,73.1 -7.18,109.7 -18.25,287.5 -37.12,584.8 -172.07,854 C 1176.4,4643.6 945.598,4840 635.148,4938.5 436.398,5001.6 227.82,5036.95 0,5046.62 v -30.27 c 224.672,-9.68 430.273,-44.55 626.121,-106.65 302.402,-96 527.229,-287.3 668.199,-568.4 132.18,-263.7 150.83,-557.9 168.88,-842.3 2.32,-36.7 4.65,-73.3 7.22,-109.9 2.35,-33.9 -4.5,-67.3 -11.75,-102.7 -8.75,-42.7 -17.82,-86.8 -9.87,-133.3 11.97,-70 -3.08,-141.3 -17.65,-210.2 -2.78,-13.2 -5.55,-26.2 -8.1,-39.2 C 1344.17,2503.1 1220.82,2203.6 1034.9,1961.1 725.898,1558.1 387.047,1275.2 0,1096.4 V 1063 c 396.848,180.5 743.32,468.3 1058.7,879.7 188.87,246.3 314.02,549.8 393.85,955.1 2.52,12.8 5.25,25.7 8.02,38.8 15.15,71.7 30.83,145.8 17.88,221.6 -7,40.9 1.1,80.3 9.67,122.1 7.35,35.8 14.95,72.8 12.28,110.9" /><g
         transform="scale(1.84049)"><path
           class="topo-line topo-l-21"
           d="m 16300,3837.14 c -236,69.37 -452.8,189.2 -644.7,356.8 -179.2,156.52 -334.7,345.15 -475.4,576.65 l -31.9,52.45 c -124.8,204.85 -253.8,416.65 -349.2,641.24 -48.5,114.14 -74.3,210.93 -81.2,304.61 -8.8,118.31 11.6,242.34 64.1,390.35 65.3,184.16 160.9,356.64 245.9,501.08 89.2,151.59 179.6,274.65 276.5,376.2 144.1,151.13 330.4,260.91 586.2,345.48 134.9,44.59 272.5,85.1 409.7,123.57 v 17.08 c -138.8,-38.88 -278.1,-79.85 -414.8,-125.03 -258.4,-85.44 -446.9,-196.56 -592.9,-349.7 -97.8,-102.49 -188.9,-226.53 -278.8,-379.23 -85.3,-145.1 -181.4,-318.44 -247.2,-503.92 -53.3,-150.25 -73.9,-276.42 -65,-397.11 7.1,-95.51 33.2,-193.98 82.5,-309.85 95.9,-225.68 225.2,-438.02 350.3,-643.36 l 31.9,-52.44 c 141.5,-232.97 298.1,-422.86 478.6,-580.51 194.9,-170.22 415.4,-291.64 655.4,-361.47 v 17.11" /></g><g
         transform="scale(1.84049)"><path
           class="topo-line topo-l-22"
           d="m 15536.2,625.865 c 84.4,-100.57 171.7,-204.618 244.3,-316.653 66.9,-103.233 117.9,-205.652 154,-309.212 h 17.3 c -36.6,106.712 -88.8,212.063 -157.6,318.177 -73.2,112.903 -160.8,217.333 -245.5,318.285 -58,69.22 -118.1,140.776 -172.8,214.235 -135.5,181.963 -198.9,362.183 -193.8,550.993 2.6,96.39 18.9,200.82 48.5,310.3 17.5,65.04 34.7,131.38 51.4,195.49 50.7,195.71 103.2,398.05 173.4,591.69 58.6,161.53 179.6,255.38 350,271.3 166.9,15.65 333.4,-3.94 494.6,-23.08 v 16.56 c -161.4,19.18 -328.2,38.62 -496.2,22.9 -177,-16.56 -302.9,-114.09 -363.8,-282.03 -70.5,-194.35 -123,-397.12 -173.9,-593.16 -16.6,-64.11 -33.8,-130.4 -51.3,-195.38 -29.9,-110.73 -46.4,-216.46 -49.1,-314.15 -5.1,-192.61 59.4,-376.26 197.1,-561.266 55,-73.894 115.2,-145.669 173.4,-214.999" /></g><path
         class="topo-line topo-l-23"
         d="m 11972.3,9776.72 c -248.7,0 -482.4,-90.47 -697.9,-270.77 -338.6,-283.27 -558.4,-660.53 -671.9,-1153.3 -59.8,-259.53 -68.6,-536.48 -27,-846.65 60.9,-453.47 215.8,-867 460.5,-1229.1 114.3,-169.03 254.8,-290.83 429.6,-372.3 30.9,-14.4 61.6,-16.87 94.1,-19.5 30.8,-2.47 62.6,-5.02 93.4,-18.75 1.4,0.52 2.9,0.87 4.5,0.97 224.3,14.58 393.7,142.88 516.1,253.03 194.8,175.2 385,379.73 581.2,625.3 218.3,273.23 465.4,595.03 632.9,956.82 112.6,243 157.6,459.95 137.8,663.23 -27,277.48 -139.3,539.2 -324.8,756.93 -254.2,298.34 -557.1,501.54 -900.2,603.94 -112,33.46 -221.6,50.15 -328.3,50.15 z m -324.7,-3939.64 c -2.1,0 -4.2,0.45 -6.1,1.32 -26.3,11.85 -54.4,14.13 -84.2,16.55 -33.7,2.7 -68.6,5.5 -104.3,22.15 -179.9,83.87 -324.5,209.1 -441.9,382.75 -247.3,366.03 -403.9,783.93 -465.4,1242.1 -42.1,313.88 -33.1,594.38 27.5,857.55 115.1,499.45 338.2,882.07 682,1169.72 316.3,264.56 670.9,340.75 1054,226.38 348.7,-104.07 656.4,-310.4 914.4,-613.25 189.5,-222.48 304.3,-490 332,-773.68 20.3,-208.82 -25.6,-430.92 -140.5,-678.97 -169,-364.88 -417.3,-688.42 -636.8,-963.03 -197.3,-246.87 -388.5,-452.57 -584.5,-628.87 -126.1,-113.43 -300.8,-245.53 -534.3,-260.67 -2.3,-0.18 -4.4,0.22 -6.4,1.02 -1.7,-0.7 -3.6,-1.07 -5.5,-1.07" /><path
         class="topo-line topo-l-24"
         d="m 4483.07,2447.1 c -159.22,454.7 -446.9,782.5 -855.02,974.5 -135.4,63.6 -341.83,138 -570.3,50 -200.08,-77.1 -307.55,-228.1 -378.8,-350.9 -121.73,-210 -197.43,-440.5 -270.63,-663.5 -25.4,-77.3 -51.65,-157.2 -79.37,-235 C 2184.47,1817.4 1999.97,1522.1 1748.37,1292.8 1537.45,1100.5 1285.42,926 931.223,727.199 640.398,563.902 389.82,438.102 112.047,354.602 74.1211,343.199 36.8984,333 0,323.5 v -31.098 c 39.7227,10.098 79.7969,20.899 120.648,33.2 280.399,84.3 532.672,210.898 825.2,375.097 356.302,200.102 610.022,375.801 822.702,569.701 255.42,232.7 442.47,532 588.67,941.6 27.88,78.1 54.2,158.3 79.63,235.8 72.75,221.4 147.92,450.4 268.07,657.6 103.53,178.6 212.28,279.6 363.58,337.9 217.82,84 416.4,12.2 546.82,-49.1 400.55,-188.4 682.95,-510.4 839.4,-957.1 71.95,-205.4 88.9,-407.1 50.35,-599.4 C 4447.9,1552.1 4275.4,1324.9 3977.75,1143.2 3846.9,1063.3 3708.52,991 3574.7,921.102 3469.12,865.898 3359.97,808.902 3255.05,748.301 2937.02,565.102 2673.37,317.602 2457.67,0 h 36.45 c 211,305.699 467.63,544.5 775.85,722.102 104.43,60.097 213.28,117.097 318.58,172.097 134.27,70.199 273.1,142.801 404.8,223.201 305.22,186.3 482.27,419.9 541.22,714.3 39.6,197.7 22.3,404.8 -51.5,615.4" /><g
         transform="scale(1.84049)"><path
           class="topo-line topo-l-25"
           d="m 16300,4035.64 c -224.6,78.47 -426.8,207.02 -602.6,383.7 -179.8,180.86 -327.6,399.63 -451.8,668.82 -77.2,167.41 -159.8,369.55 -186.7,599.59 -13.6,115.8 -6.1,232.27 22.9,356.07 33.5,142.64 90,280.66 168,410.25 126,209.37 266.2,369.22 428.6,488.63 197.8,145.49 419.8,223.42 621.6,276.9 v 17.03 c -204.5,-53.91 -429.9,-132.6 -631.2,-280.65 -164.2,-120.72 -305.8,-282.12 -433,-493.4 -78.8,-131.05 -136,-270.67 -169.8,-414.98 -29.5,-125.69 -37.1,-244.04 -23.3,-361.78 27.1,-232.35 110.3,-436 188.1,-604.59 125,-270.97 273.9,-491.27 455.1,-673.52 178.9,-179.88 385,-310.34 614.1,-389.43 v 17.36" /></g><path
         class="topo-line topo-l-subtle"
         d="m 7884.77,0 c 253.45,201.402 568,317.199 936.1,344 365.45,26.602 721.7,0 1058.83,-79.301 258.1,-60.597 496.5,-149.398 714.4,-264.699 h 63.8 c -233.4,129.801 -491,228.301 -771.38,294.199 -340.07,80 -699.37,106.903 -1067.82,80 C 8430.25,345.898 8100.17,219.902 7837.05,0 h 47.72" /><g
         transform="scale(1.84049)"><path
           class="topo-line topo-l-26"
           d="m 15855,735.62 c 12.9,-16.843 25.8,-33.742 38.7,-50.693 96.4,-126.815 167.2,-233.633 222.9,-336.27 60.6,-111.655 106.3,-228.689 137.1,-348.657 h 16.9 c -31.1,122.738 -77.8,242.382 -139.7,356.535 -56,103.344 -127.3,210.921 -224.2,338.388 -12.9,16.952 -25.9,33.85 -38.8,50.749 -91.7,119.642 -186.5,243.303 -252.9,381.748 -68.2,142.24 -83.5,292.09 -46.7,458.03 22.6,101.55 63.6,204.83 125.1,315.73 76,136.7 176.7,230.59 299.3,279.11 97.5,38.52 204.2,50.64 307.3,56.13 v 16.51 c -104.7,-5.54 -213.5,-17.87 -313.2,-57.32 -126.4,-49.99 -229.8,-146.32 -307.6,-286.39 -62.4,-112.31 -103.8,-217.06 -126.8,-320.24 -37.7,-169.69 -22,-322.96 47.9,-468.73 67.1,-139.968 162.5,-264.337 254.7,-384.63" /></g><path
         class="topo-line topo-l-27"
         d="M 5320.22,0 C 5648.6,55.4023 5950.1,99 6265.1,93.3984 6394.22,91.1992 6504.1,59.6016 6594.62,0 h 52.5 C 6545.87,79.3008 6418.6,121 6265.62,123.699 5928.5,130.199 5607.87,80.1016 5253.67,19.5 5217.32,13.3008 5180.02,6.80078 5142.3,0 h 177.92" /><g
         transform="scale(1.84049)"><path
           class="topo-accent topo-a-8"
           d="m 16300,4272.07 c -45.4,18.9 -90.3,40.75 -133.6,66.39 -245,145.2 -441.1,348.97 -582.7,605.67 -121.5,220.23 -196.1,453.48 -221.7,693.26 -14.9,139.44 2.4,286.45 51.5,436.93 95.5,292.7 279,526.36 545.5,694.46 102.2,64.44 215.3,116.97 341,158.5 v 43.33 c -134,-43.19 -254.1,-98.57 -362.6,-166.99 -274.9,-173.34 -464.2,-414.39 -562.7,-716.48 -50.9,-156.06 -68.8,-308.86 -53.3,-454.13 26.2,-245.29 102.4,-483.78 226.6,-708.86 145.2,-263.18 346.3,-472.16 597.6,-621.11 50.1,-29.67 102.1,-54.31 154.4,-75.33 v 44.36" /></g><path
         class="topo-line topo-l-28"
         d="m 224.523,0 c 201.977,46.8984 398.598,109.902 591,171.602 106.047,34 215.727,69.097 324.347,101 109.58,32.097 230.63,56.398 370.13,74.097 83.82,10.703 171.02,-15.597 239.12,-72 68.35,-56.5 110.9,-137.297 116.68,-221.4998 1.22,-17.6992 1.77,-35.5 2.17,-53.1992 h 30.1 c -0.42,18.3984 -1,36.8984 -2.27,55.4023 -6.38,92.3987 -52.88,180.8987 -127.58,242.6997 -74.47,61.597 -169.95,90.199 -262,78.597 -141.07,-17.898 -263.65,-42.5 -374.75,-75 -109,-32 -218.849,-67.199 -325.072,-101.297 C 570.371,124.801 327.973,47.1992 77.7969,0 H 224.523" /><g
         transform="scale(1.84049)"><path
           class="topo-line topo-l-29"
           d="m 16300,4466.1 c -176.4,90.68 -324.2,218.84 -439.7,381.41 -219.1,308.41 -307.5,637.33 -262.8,977.61 15.7,120.14 50.2,231.99 102.2,332.46 71.8,138.41 165.8,253.75 287.4,352.61 94.9,77.17 198.7,139.83 312.9,188.99 v 17.83 c -118.1,-50.13 -225.3,-114.45 -323.2,-194.02 -121.6,-98.92 -219.8,-219.29 -291.5,-357.79 -53,-102.19 -88,-215.88 -104,-337.92 -45.3,-344.56 44.2,-677.41 265.7,-989.33 118.6,-167.01 271,-298.1 453,-390.2 v 18.35" /></g><g
         transform="scale(1.84049)"><path
           class="topo-line topo-l-30"
           d="m 16300,4701 c -58.7,39.49 -114.8,86.04 -168.8,140.17 -197.4,197.96 -301.5,446.41 -318.2,759.57 -1.6,30.29 2.1,61.34 5.7,91.36 1.4,11.65 2.8,23.31 3.9,34.96 9.7,101.69 37.4,201.17 84.5,304.09 53.6,116.98 137,221.83 254.8,320.52 43.9,36.83 90,69.64 138.1,98.47 v 19.02 c -51.8,-30.44 -101.4,-65.35 -148.6,-104.85 -119.7,-100.3 -204.5,-207.01 -259.1,-326.26 -47.9,-104.63 -76.1,-205.84 -86,-309.42 -1.1,-11.52 -2.5,-23.04 -3.8,-34.57 -3.7,-30.72 -7.5,-62.48 -5.8,-94.21 17,-317.39 122.6,-569.37 323,-770.35 57.6,-57.69 117.4,-106.94 180.3,-148.29 V 4701" /></g><g
         transform="scale(1.84049)"><path
           class="topo-line topo-l-31"
           d="m 16300,4991.58 c -198.7,193.75 -274,440.02 -223.6,734.4 29.4,171.76 104.3,312.77 223.6,422.11 v 22.33 c -128.4,-113.02 -208.7,-260.62 -239.7,-441.63 -52.4,-305.99 28.2,-560.98 239.7,-760.17 v 22.96" /></g><path
         class="topo-line topo-l-32"
         d="m 14089.2,15000 c 23.2,-97.9 22.9,-201.9 -1.7,-308.7 -66.4,-288.7 -295.3,-458.3 -487.3,-573.9 -284.5,-171.1 -594.3,-246.4 -921.1,-223.8 -245.9,17 -425.5,159.8 -480.5,381.9 -36.8,148.4 -44.7,278.9 -24.9,410.5 17.4,115.9 44.2,219.7 81.3,314 h -32.2 c -35.7,-93.4 -61.7,-195.8 -78.8,-309.5 -20.4,-135.7 -12.3,-269.9 25.4,-422.3 58.3,-235.5 248.1,-386.9 507.7,-404.8 38.5,-2.7 76.7,-4 114.7,-4 290.8,0 567.5,77.8 823.8,232.1 197.1,118.6 432.2,293.2 501.2,593 25.1,109 25.8,215.2 3.2,315.5 h -30.8" /><path
         class="topo-line topo-l-33"
         d="m 7783.57,7426.15 c -212.92,-95.83 -315.2,-264.15 -321.87,-529.77 -4.65,-185.65 16.15,-396.48 205.77,-552.31 86.75,-71.25 183.35,-130.64 301.8,-82.35 121.33,49.4 203.13,140.08 230.28,255.33 51.5,218.4 30.57,437.35 -62.23,650.82 -65.85,151.48 -209.07,257.28 -348.27,257.28 -1.95,0 -3.78,0.35 -5.48,1 z m 100.4,-1212.12 c -90.77,0 -168.72,51.72 -235.52,106.59 -199.68,164.1 -221.63,383.55 -216.8,576.56 7,278.84 115.12,455.84 340.32,556.92 3.8,1.73 7.98,1.7 11.6,0.27 1.68,0.66 3.53,1.03 5.48,1.03 153.17,0 304.2,-110.68 375.82,-275.4 95.45,-219.6 116.98,-445 63.95,-669.95 -29.5,-125.05 -117.67,-223.23 -248.27,-276.4 -33.7,-13.7 -65.88,-19.62 -96.58,-19.62" /><g
         transform="scale(1.66742)"><path
           class="topo-line topo-l-34"
           d="m 15290.9,4036.9 c 170.3,0 340.3,-18.35 505.1,-36.14 27.2,-2.93 54.3,-6.25 81.4,-9.58 91.1,-11.13 185.2,-22.61 278.6,-18.67 41.7,1.78 80.3,19.8 103.3,48.21 15.7,19.24 22.1,40.93 18.6,62.72 -7.9,50.28 -17.5,103.32 -39,150.68 -78.5,173.63 -176.5,370.88 -345.1,514.72 -128.2,109.35 -241.9,160.01 -368.8,164.26 -11.7,0.37 -22,4.31 -31.9,8.12 -13.2,5.03 -24.6,9.4 -37.4,5.28 -2,-0.65 -4.1,-0.56 -6,0.19 -31.6,-14.37 -65.1,-16.91 -97.5,-19.37 -24.8,-1.89 -50.5,-3.84 -74.7,-11.18 -213.1,-64.73 -405.2,-171.8 -548.8,-257.83 -156,-93.5 -321.1,-194.56 -473.1,-311.54 -47,-36.24 -86.1,-78.74 -119.3,-129.94 -26.5,-40.79 -33.2,-79.35 -19.6,-111.51 15.9,-37.26 57.9,-63.19 121.6,-74.98 129.3,-23.98 259.3,-5.92 385.1,11.55 l 6.7,0.94 c 23.6,3.27 47.8,2.35 71.1,1.5 17.9,-0.67 36.4,-1.37 54.2,-0.11 37.1,2.61 74.8,6.98 111.2,11.23 99.5,11.5 202.4,23.48 305.7,1.75 18.3,-3.84 37.8,-2.77 58.5,-1.6 8.3,0.44 16.6,0.91 24.8,1.03 11.7,0.19 23.5,0.27 35.3,0.27 z m 826.3,-83.35 c -81.6,-0.01 -162.9,9.95 -241.9,19.61 -27.1,3.32 -54.1,6.63 -81.2,9.55 -175.6,18.96 -357,38.5 -538.2,35.78 -8,-0.13 -16,-0.58 -24.1,-1.02 -20.9,-1.19 -42.6,-2.37 -63.2,1.98 -100.5,21.08 -201.9,9.33 -299.9,-2.04 -36.7,-4.26 -74.6,-8.65 -112,-11.3 -18.8,-1.35 -37.8,-0.6 -56.2,0.07 -23.6,0.87 -45.9,1.73 -67.9,-1.34 l -6.7,-0.94 c -127.2,-17.66 -258.8,-35.89 -390.9,-11.41 -69.9,12.94 -116.5,42.57 -134.8,85.67 -16,37.47 -8.5,83.14 21,128.6 34.3,52.94 74.8,96.91 123.5,134.43 152.7,117.56 318.3,218.96 474.8,312.71 144.4,86.58 337.9,194.32 552.8,259.6 26.2,7.95 52.8,9.97 78.6,11.92 32.4,2.45 62.9,4.77 91.7,17.99 2.4,1.03 4.9,1.06 7,0.19 0.2,0.07 0.4,0.12 0.6,0.2 18.8,6.01 34.9,-0.15 49.2,-5.6 9,-3.44 17.5,-6.68 26.2,-6.97 131.2,-4.37 248.4,-56.36 379.8,-168.53 171.5,-146.26 270.6,-345.64 350,-521.03 22.4,-49.45 32.5,-106.12 40.3,-155.37 4.3,-26.66 -3.7,-54.03 -22.4,-77.06 -26.3,-32.37 -69.9,-52.88 -116.5,-54.88 -13.2,-0.55 -26.4,-0.81 -39.6,-0.81" /></g><path
         class="topo-line topo-l-35"
         d="m 7739.72,8747.75 c -41.22,-17.93 -84.67,-29.8 -126.7,-41.3 -56.82,-15.52 -115.6,-31.63 -168.05,-62.75 -263.77,-156.48 -443.65,-391.48 -549.82,-718.38 -64.2,-197.62 -109.03,-415.95 -137,-667.45 -16.3,-146.47 -21.38,-281.8 -15.5,-413.72 26.72,-603.13 253.87,-1041.37 694.45,-1339.75 262.5,-177.83 556.87,-231.58 851.3,-155.57 186.75,48.25 327.32,183.82 417.82,402.89 112.38,272.03 155.35,570.65 127.75,887.58 -46.8,537.4 -127.75,970.33 -254.75,1362.45 l -10.62,32.9 c -62.13,192.77 -120.83,374.85 -263.05,526.08 -132.03,140.37 -286.35,201.47 -471.5,186.37 -20.6,-1.68 -41.35,-1.25 -61.43,-0.77 -9.15,0.2 -18.3,0.37 -27.42,0.37 -1.93,0 -3.78,0.38 -5.48,1.05 z m 288.88,-3462.8 c -211.5,0 -418.08,65.47 -608.28,194.3 -449.05,304.15 -680.52,750.15 -707.72,1363.57 -5.93,133.48 -0.8,270.36 15.67,418.4 28.23,253.58 73.45,473.91 138.28,673.5 108.6,334.23 292.8,574.65 563.15,735.08 55.95,33.17 116.7,49.8 175.45,65.85 41.15,11.28 83.72,22.92 123.12,40.1 3.78,1.62 7.88,1.6 11.45,0.18 1.68,0.69 3.55,1.05 5.48,1.05 9.35,0 18.7,-0.21 28.07,-0.41 20.2,-0.45 39.28,-0.84 58.38,0.7 195.1,15.65 357.07,-48.32 495.75,-195.74 146.87,-156.18 206.57,-341.43 269.8,-537.53 l 10.6,-32.88 c 127.72,-394.37 209.12,-829.42 256.12,-1369.14 28.03,-321.88 -15.67,-625.31 -129.92,-901.88 -94.33,-228.35 -241.73,-369.85 -438.13,-420.57 -89.37,-23.13 -178.77,-34.58 -267.27,-34.58" /><g
         transform="scale(1.24383)"><path
           class="topo-line topo-l-36"
           d="m 10104.9,0 c -19.2,289.99 51.5,556.024 211,791.746 234.3,346.184 531.1,649.764 818.1,943.374 l 3.4,3.38 c 262.1,268.12 544.5,551.19 861,805.89 160.5,129.2 357.7,269.81 602.9,333.49 24.7,6.43 50.5,10.12 75.6,13.66 40,5.71 81.2,11.58 120.1,28.38 1.6,-0.64 3.3,-0.96 5.1,-0.8 236.5,15.51 490,-8.68 753.4,-71.88 491.8,-118.1 895.2,-235.8 1269.7,-370.54 425.2,-152.92 727.1,-445.8 897.5,-870.38 150.3,-374.8 285,-755.643 396.9,-1078.758 l 12.1,-34.731 C 16187.4,332.198 16244.3,168.512 16275.4,0 h 24.6 c -31.3,171.565 -88.9,337.826 -145.5,500.792 l -12.1,34.731 c -112,323.433 -246.8,704.597 -397.3,1079.887 -173,431.33 -479.8,728.87 -911.8,884.28 -375.3,134.99 -779.6,252.93 -1272.2,371.19 -265.7,63.84 -521.7,88.2 -760.5,72.52 -1.3,-0.08 -2.6,-0.32 -3.6,-0.8 -2.9,1.2 -6.2,1.2 -9.3,-0.16 -35.9,-15.6 -73.9,-21.07 -114.1,-26.78 -25.8,-3.7 -52.4,-7.47 -78.3,-14.23 -249.7,-64.8 -449.5,-207.26 -612,-338.07 -317.6,-255.58 -600.5,-539.13 -863.2,-807.82 l -3.3,-3.38 C 10829,1457.83 10531.5,1153.45 10295.9,805.413 10133.6,565.508 10061.5,294.895 10080.7,0 h 24.2" /></g><path
         class="topo-line topo-l-37"
         d="m 11861.4,9088.83 c -36.4,-15 -74.8,-22.58 -111.8,-29.9 -41.5,-8.2 -80.8,-15.96 -117.8,-33.18 -293.2,-136.15 -487.1,-370.52 -592.9,-716.5 -153.9,-503.52 -79.6,-960 220.7,-1356.75 207.4,-274.05 478.3,-308.72 805.1,-103.18 380.7,239.58 650.3,604.38 779.6,1054.95 121.1,422.16 -80.5,861.75 -490.3,1069.08 -171.8,86.93 -326.3,123.25 -486.3,114.45 -2.3,-0.02 -4.4,0.22 -6.3,1.03 z m -184.2,-2400.38 c -168.6,-0.02 -317.7,82.15 -441.5,245.7 -302.3,399.28 -380.2,877.83 -225.5,1384 108.4,354.67 307.6,595.13 608.9,735.08 40.4,18.77 83.3,27.22 124.7,35.39 37.4,7.4 72.7,14.38 106.4,28.28 3.7,1.53 7.7,1.48 11.2,0.1 1.4,0.58 3,0.92 4.6,1.02 165.4,9.13 324.9,-28.25 501.5,-117.62 422.9,-213.97 630.9,-668.15 505.7,-1104.52 -131.4,-457.86 -405.4,-828.63 -792.6,-1072.23 -143.4,-90.22 -278.8,-135.2 -403.4,-135.2" /><path
         class="topo-line topo-l-38"
         d="m 12124.4,10751.4 c -0.3,-0.1 -0.6,-0.2 -0.9,-0.3 -656,-208.9 -1051.3,-706.7 -1351.4,-1166.15 -213.9,-327.37 -366.7,-688.23 -454.2,-1072.48 -67.5,-296.37 -90.3,-577.75 -67.8,-836.3 48,-549.82 195.2,-1110.99 437.5,-1667.89 191.4,-439.76 395.8,-773.78 643.1,-1051.18 91.8,-103 215.4,-187.3 367.4,-250.5 103.8,-43.2 295.4,37.7 386.9,163.3 107.1,147.2 193.2,309.92 276.6,467.3 16.9,32.02 33.9,64.02 51,95.95 224.6,418.47 501.1,841.02 845.2,1291.77 28.3,37.18 56.8,74.23 85.3,111.33 214.3,278.7 435.9,566.9 591.7,888.33 87.6,180.6 142.4,363.52 167.5,559.22 46.1,359.7 -52.8,701.43 -320.6,1107.97 -217.6,330.33 -511.5,597.03 -793.9,841.93 -29.3,25.3 -58.3,50.9 -87.3,76.4 -133.8,117.9 -272.2,239.7 -427.8,335.8 -94.7,58.5 -206.9,119.7 -341.1,104.6 -2.5,-0.2 -4.9,0.1 -7.2,0.9 z m -359.8,-6087.2 c -27.8,0 -54.2,4.5 -78,14.4 -156.1,65 -283.4,151.9 -378.2,258.3 -249.6,279.85 -455.6,616.43 -648.3,1059.2 -243.7,559.95 -391.7,1124.32 -439.9,1677.45 -22.9,261.7 0.2,546.22 68.4,845.7 88.3,387.78 242.5,751.92 458.4,1082.32 303,463.93 702.5,966.63 1367.4,1178.43 3.5,1.1 7,0.9 10,-0.4 1.2,0.5 2.5,0.8 3.9,1 143.4,16.1 261.1,-47.7 360.2,-108.9 157.6,-97.4 297,-220.1 431.8,-338.8 29,-25.5 57.9,-51 87.1,-76.3 284,-246.2 579.6,-514.57 799.4,-848.1 272,-413.05 372.4,-761.13 325.3,-1128.58 -25.5,-198.99 -81.2,-385.02 -170.2,-568.62 -157.3,-324.22 -379.8,-613.67 -595,-893.6 -28.5,-37.05 -56.9,-74.08 -85.3,-111.2 -343.1,-449.47 -618.7,-870.7 -842.5,-1287.72 -17.2,-31.88 -34.1,-63.86 -51,-95.81 -83.8,-158.32 -170.5,-322 -278.9,-470.87 -73.5,-101 -222.6,-187.9 -344.6,-187.9" /><path
         class="topo-line topo-l-39"
         d="M 270.473,3687 C 190.172,3797.8 100.445,3882.7 0,3943 v -34.6 C 90.3477,3851.2 171.473,3772.2 246.195,3669.2 422.598,3425.9 465.223,3136.5 372.898,2808.8 294.695,2531.4 171,2316.8 0,2161.3 v -41.6 c 185.797,160.4 318.773,386.2 401.82,680.9 94.977,337 50.801,635.2 -131.347,886.4" /><g
         transform="scale(1.17225)"><path
           class="topo-line topo-l-40"
           d="m 11978.5,0 c 1.1,14.672 2,29.3441 3.7,44.4459 23.9,213.7761 110.2,423.2891 263.9,640.5641 233.2,329.71 512.5,609.94 830,832.76 295.6,207.47 564.1,329.54 845.1,384.31 31,6.05 63.3,9.55 94.6,12.96 59.9,6.57 121.9,13.31 179.8,37.71 1.3,-0.6 2.9,-0.94 4.4,-0.94 l 36.9,-0.77 c 101,-1.96 205.4,-3.92 308.4,-14.42 217.8,-22.18 418.5,-73.27 613.3,-156.28 266.3,-113.45 490.9,-283.73 667.5,-506.12 119.4,-150.14 213.6,-310.855 280.3,-477.715 81.4,-204.139 130,-379.27 152.7,-551.249 11.6,-87.439 15.6,-168.6502 12.1,-245.256 h 25.1 c 3.7,78.3952 -0.2,160.972 -11.7,248.668 -23.1,174.195 -72.1,351.292 -154.4,557.477 -67.6,169.163 -163.2,332.095 -284,484.285 -179.3,225.72 -407.4,398.55 -677.6,513.63 -197.2,84.03 -400.3,135.81 -620.7,158.24 -104.1,10.58 -209.1,12.63 -310.6,14.59 l -36.8,0.68 c -2.1,0.09 -3.4,-0.25 -4.9,-0.85 -3,1.19 -6.4,1.19 -9.6,-0.08 -54.7,-23.04 -114.8,-29.61 -172.9,-35.92 -31.8,-3.5 -64.7,-7.08 -96.7,-13.31 -284.7,-55.45 -556.3,-178.89 -855,-388.4 -319.9,-224.61 -601.2,-506.89 -836.2,-839.071 -156.2,-220.857 -244.1,-434.293 -268.5,-652.594 -1.8,-16.0382 -2.8,-31.65 -3.9,-47.345 h 25.7" /></g><g
         transform="scale(1.19649)"><path
           class="topo-line topo-l-41"
           d="m 11310.7,0 c 14.2,143.754 53.9,282.826 128.8,450.735 133,298.706 349.6,544.258 542.1,750.945 276.2,296.54 579.9,545.01 902.4,738.58 224.8,134.89 472.8,228.83 736.9,279.07 24.4,4.67 50.5,4.67 75.7,4.76 46.3,0.16 94.3,0.25 138.3,27.41 1.5,-0.5 3.1,-0.83 4.7,-0.75 291.8,8.61 580.2,-27.33 857.1,-107.4 446.4,-128.96 777.4,-336.82 1011.7,-635.44 148.6,-189.3 270,-410.12 371.3,-674.891 91.2,-238.53 184.2,-521.858 195.2,-833.019 h 25.1 c -10.9,315.173 -104.8,601.342 -196.9,842.131 -102.1,267.199 -224.8,490.099 -375,681.489 -237.7,302.89 -572.8,513.51 -1024.4,644.05 -279.5,80.74 -570.4,117.26 -864.8,108.32 -1.5,0 -2.9,-0.33 -4.3,-0.84 -3.6,1.43 -7.8,1.17 -11.3,-1.08 -38.3,-24.41 -81.3,-24.49 -126.7,-24.66 -26.5,-0.08 -53.7,-0.17 -80.4,-5.18 -267,-50.9 -517.7,-145.84 -745.1,-282.24 -324.5,-194.74 -630,-444.72 -907.8,-743.01 -194,-208.19 -412.2,-455.664 -546.8,-757.964 -75.9,-170.498 -116.3,-311.996 -130.8,-458.59029 -0.1,-0.83904 -0.1,-1.674816 -0.2,-2.42571 h 25.2" /></g><g
         transform="scale(1.2206)"><path
           class="topo-line topo-l-42"
           d="m 10691.2,0 c 10.5,248.402 91.4,486.892 242.5,711.125 211.1,313.375 473.2,612.485 824.8,941.335 225.6,211.13 422.6,373.84 620.2,512.13 274.7,192.36 546,310.17 829.4,360.23 23.2,4.1 47,4.18 72.2,4.18 46.2,0.16 93.9,0.33 137.6,27.28 1.6,-0.57 3.4,-0.82 5,-0.66 172,10.17 355.9,-2.53 562.3,-38.74 292.4,-51.38 582.3,-131.33 861.4,-237.76 415.3,-158.36 712.2,-414.38 907.8,-782.73 199,-374.4 356.9,-793.375 482.9,-1280.839 18.5,-71.197 30.8,-143.209 38,-215.551 h 24.7 c -7.2,74.4702 -19.9,148.534 -38.8,221.775 -126.5,489.433 -285.2,910.205 -485,1286.335 -195.8,368.67 -505.6,635.83 -920.8,794.2 -280.6,106.91 -572,187.37 -866.1,238.98 -208.1,36.62 -394,49.4 -567.8,39 -1.4,-0.09 -2.6,-0.33 -3.8,-0.82 -3.6,1.39 -7.7,1.15 -11.1,-1.07 -38.2,-24.33 -81,-24.41 -126.4,-24.58 -25.1,-0.08 -51.1,-0.16 -76.5,-4.58 -286.9,-50.72 -561.3,-169.84 -839.1,-364.33 -198.5,-138.95 -396.5,-302.39 -622.9,-514.26 -352.9,-330.24 -616.1,-630.67 -828.3,-945.598 C 10759.4,496.477 10677,253.4 10666.5,0 h 24.7" /></g><path
         class="topo-line topo-l-43"
         d="m 4758.07,11540.2 c -0.12,-0.1 -0.27,-0.2 -0.4,-0.2 -302.17,-109.3 -397.47,-368.3 -450.82,-607.2 -29,-129.7 -26.18,-263.7 -20.4,-401 15.12,-358.6 146.1,-674.55 389.25,-939.22 231.8,-252.26 529.5,-428.86 817.4,-599.63 l 78.8,-46.83 c 298.82,-178.2 488.75,-425.52 564.5,-735.1 l 6.02,-24.45 c 23.2,-94.1 47.23,-191.42 47.2,-288.02 -0.02,-120.68 7.13,-243.18 14.05,-361.65 6.75,-115.28 13.73,-234.48 14.13,-352.37 1.7,-505.23 69.77,-909.93 214.25,-1273.68 89.77,-226.03 207.47,-419.7 359.82,-592.05 316.15,-357.7 747.63,-592 1319.05,-716.6 190.13,-41.4 352.35,-42.3 495.98,-2.6 157.8,43.6 287.32,148.7 384.97,312.5 120.53,201.95 166.38,428.73 197.98,643.7 30.35,206.3 58.67,450.8 38.75,699.98 -3.5,43.82 -6.75,87.67 -10,131.52 -11.58,156.22 -23.53,317.78 -47.45,475.85 -11.25,74.55 -19.88,151.25 -28.2,225.4 -7,62.25 -14.2,126.65 -22.98,189.4 -8.35,59.83 -15.72,119.78 -23.1,179.78 -15.97,130.17 -32.5,264.77 -59.47,395.6 -12.15,58.92 -15.18,120.79 -18.08,180.62 -0.9,18.68 -1.8,37.25 -2.97,55.68 -18.58,292.4 -50.53,578.49 -94.95,850.34 -30.53,186.63 -94.18,419.75 -317.4,567.5 -110.63,73.23 -243.98,110.33 -398.33,109.15 -171.95,-1 -346.1,8.7 -514.4,17.98 -73.55,4.05 -147.07,8.1 -220.6,11.33 -266.02,11.67 -505.2,100.94 -710.82,265.35 -167.45,133.92 -302.08,299.12 -432.25,459.02 -52.13,64.1 -106.05,130.3 -161.25,193.4 l -48.05,55.1 c -265.98,305 -541,620.4 -911.58,828 -128.22,71.9 -268.85,101.2 -442.4,92.3 -2.35,0 -4.32,0.3 -6.25,1.1 z m 3623.63,-7000 c -85.95,0 -177.93,10.8 -277.15,32.5 -577.88,125.9 -1014.6,363.3 -1335.15,726 -152.55,172.58 -275.45,374.75 -365.28,600.93 -145.92,367.37 -214.7,775.65 -216.4,1284.8 -0.4,117.07 -7.35,235.82 -14.05,350.7 -6.95,118.9 -14.15,241.87 -14.12,363.42 0.02,92.9 -23.53,188.4 -46.3,280.72 l -6.05,24.51 c -74.78,305.65 -254.9,539.94 -550.63,716.32 l -78.72,46.77 c -289.78,171.88 -589.43,349.63 -824.23,605.18 -248.12,270.05 -381.77,592.55 -397.2,958.45 -5.9,139.4 -8.7,275.6 21.08,408.9 55.15,247 154.12,514.8 470,629.1 3.57,1.3 7.27,1.1 10.57,-0.2 1.48,0.6 3.05,1 4.73,1.1 179.57,9 325.15,-21.4 458.55,-96.1 375.12,-210.3 651.9,-527.6 919.55,-834.6 l 48.02,-55 c 55.55,-63.5 109.63,-129.9 161.95,-194.2 129.15,-158.6 262.73,-322.6 427.68,-454.53 200.57,-160.34 433.85,-247.42 693.42,-258.8 73.65,-3.25 147.28,-7.29 220.93,-11.35 167.87,-9.25 341.52,-18.82 512.62,-17.92 159.63,1.02 299.33,-37.58 415,-114.15 232.98,-154.2 299.03,-395.15 330.55,-587.85 44.6,-272.85 76.65,-559.95 95.28,-853.33 1.17,-18.57 2.07,-37.32 3,-56.15 2.85,-58.67 5.8,-119.35 17.47,-175.94 27.25,-132.03 43.85,-267.28 59.9,-398.05 7.35,-59.81 14.7,-119.61 23.03,-179.25 8.82,-63.15 16.07,-127.78 23.07,-190.25 8.3,-73.86 16.88,-150.23 28.05,-224.25 24.08,-159.21 36.1,-321.3 47.7,-478.1 3.25,-43.83 6.5,-87.63 10,-131.4 20.15,-252.18 -8.4,-498.81 -38.97,-706.8 -32.05,-218.1 -78.7,-448.36 -201.95,-654.88 -101.75,-170.7 -237.28,-280.4 -402.8,-326.1 -72.88,-20.1 -150.23,-30.2 -233.15,-30.2" /><g
         transform="scale(1.14364)"><path
           class="topo-line topo-l-44"
           d="m 12865.9,0 c -2.1,38.8221 -1.3,78.9592 3,120.931 16.4,157.655 71.7,309.712 174.4,478.472 130.1,214.143 308,404.497 543.8,582.007 268.9,202.59 542.3,325.71 835.6,376.6 22.7,3.85 46.4,4.46 69.8,4.46 5.4,0 10.6,0 15.9,0 52.9,-0.52 107.2,-0.7 157.5,28.94 1.9,-0.7 4.1,-1.05 6.4,-0.7 33.3,4.64 65.6,-1.39 99.8,-7.78 26.1,-4.98 53.1,-10.49 80.7,-9.79 148.1,1.66 298.7,-32.09 473.2,-104.67 454,-188.87 753.8,-524.201 891.3,-996.819 48,-165.173 56.3,-323.177 25.3,-471.651 h 26.8 c 30.6,151.186 21.9,311.55 -26.8,479.087 -139.9,480.659 -444.8,821.763 -906.5,1013.783 -174.9,72.75 -326.3,106.76 -475.6,106.76 -3.3,0 -6.6,0 -9.6,0 -24.4,0 -48.5,4.46 -74,9.27 -34.7,6.47 -70.7,13.29 -108.2,8.04 -1,-0.17 -2,-0.43 -3,-0.87 -3.6,1.49 -7.9,1.23 -11.5,-0.96 -44.6,-26.84 -93.7,-26.41 -145.7,-26.23 -29.5,0.17 -60.2,0.35 -90.2,-4.81 -297.6,-51.59 -574.6,-176.37 -847,-381.41 -238.5,-179.52 -418.5,-372.326 -550.5,-589.441 -104.6,-172.257 -161.2,-327.812 -178,-489.491 -4.5,-42.9312 -5.3,-84.0281 -3.4,-123.728 h 26.5" /></g><path
         class="topo-line topo-l-45"
         d="m 4626.52,12200.9 c -0.52,-0.1 -1.05,-0.3 -1.6,-0.5 -453.22,-121.3 -605.02,-493.2 -711.75,-832.3 -90.65,-288.1 -117.17,-611.2 -83.5,-1016.6 39.03,-469.3 208.48,-872.45 503.68,-1198.2 152.25,-168.02 328.52,-314 499,-455.18 42.45,-35.17 84.95,-70.37 127.15,-105.94 346.32,-291.86 561.45,-615.51 657.65,-989.48 36.45,-141.77 56.7,-293.77 74.32,-437.33 8.15,-66.49 15.9,-133.05 23.65,-199.59 46.6,-400.33 94.83,-814.23 234.95,-1204.53 121.13,-337.37 281.53,-621.88 490.33,-869.75 337.07,-400.2 773.72,-644 1156.42,-829.6 259.9,-126.2 518.75,-264.6 769.05,-398.5 140,-75 284.8,-152.4 428.1,-226.8 69.53,-36.1 175.18,-85.1 289.85,-94.1 205,-16.4 383.08,114.7 433.13,317.9 33.4,135.6 49.62,276.6 65.3,412.9 l 4.95,42.9 c 16.4,141.3 15.45,285 14.5,424.1 -0.65,98.3 -1.35,200 4.12,300.2 1.7,31.2 6.3,62.3 10.75,92.4 6.28,42.5 12.75,86.37 10.9,130.05 -5.72,134.6 -10.7,269.32 -15.67,404.03 -3.68,99.77 -7.38,199.52 -11.35,299.22 -10.4,259.22 -38.6,544.5 -86.28,872.13 -46.85,321.99 -80.3,568.7 -108.5,799.87 -13.67,112.08 -21.7,226.05 -29.45,336.28 -5.27,75.07 -10.75,152.7 -17.92,228.75 -15.93,168.37 -24.38,309.42 -13.73,450.47 25.35,335.7 49.8,733.52 39.03,1139.03 -7.6,285.05 -105.73,470.37 -308.78,583.27 -72.45,40.3 -153.97,55.8 -224.17,65.6 -128.53,18.1 -279.3,34 -423.23,14.5 -118.05,-15.9 -236.72,-15.8 -351.62,-15.7 -47.15,0.1 -95.98,0.2 -143.95,-0.9 -413.65,-9.2 -796.38,128.2 -1138.38,408.3 -220.87,180.9 -425.22,384.8 -622.82,581.9 -104.18,103.9 -211.9,211.3 -320.68,314 -184.9,174.6 -344.62,309.8 -502.62,425.5 -244.3,178.9 -471.2,252.1 -714.03,230.8 -2.37,-0.2 -4.7,0.1 -6.8,0.9 z m 4491.28,-8890 c -12.03,0 -24.13,0.5 -36.33,1.4 -120.07,9.5 -229.45,60.1 -301.27,97.4 -143.48,74.5 -288.33,152 -428.45,227 -250.03,133.7 -508.6,272 -767.98,397.9 -385.52,187 -825.6,432.8 -1166.3,837.3 -211.17,250.7 -373.3,538.25 -495.7,879.07 -141.3,393.58 -189.7,809.26 -236.52,1211.28 -7.73,66.5 -15.48,133 -23.63,199.42 -17.5,142.55 -37.57,293.43 -73.6,433.46 -94.55,367.65 -306.47,686.2 -647.82,973.85 -42.15,35.52 -84.58,70.65 -126.98,105.77 -171.27,141.85 -348.37,288.53 -502.07,458.15 -299.78,330.8 -471.85,739.95 -511.45,1216.1 -34,409.5 -7.05,736.2 84.82,1028.3 109.13,346.7 264.73,727.1 732.68,852.4 3.2,0.8 6.42,0.6 9.32,-0.6 1.3,0.6 2.73,0.9 4.18,1 250.45,22.1 483.82,-53 734.32,-236.4 159.05,-116.5 319.68,-252.4 505.53,-427.9 109.07,-103 216.92,-210.6 321.25,-314.6 197.1,-196.6 400.9,-399.9 620.65,-579.9 336.32,-275.5 712.7,-410.4 1118.75,-401.6 48.27,1.1 97.27,1.1 144.62,1 113.8,-0.1 231.55,-0.3 347.63,15.4 147.5,19.9 300.85,3.8 431.37,-14.5 72.9,-10.2 157.8,-26.5 234.53,-69.1 210.42,-116.9 316.5,-316.15 324.3,-608.98 10.82,-406.85 -13.7,-805.65 -39.1,-1142.12 -10.48,-138.93 -2.13,-278.48 13.67,-445.3 7.23,-76.42 12.7,-154.23 18,-229.5 7.73,-109.83 15.73,-223.4 29.3,-334.7 28.15,-230.95 61.6,-477.45 108.4,-799.2 47.83,-328.67 76.13,-614.97 86.58,-875.28 3.97,-99.72 7.65,-199.5 11.35,-299.32 4.95,-134.65 9.95,-269.27 15.67,-403.88 1.95,-46.54 -4.72,-91.92 -11.22,-135.72 -4.35,-29.4 -8.83,-59.9 -10.48,-89.7 -5.4,-99.2 -4.7,-200.4 -4.05,-298.3 0.95,-140 1.93,-284.6 -14.72,-427.7 l -4.95,-42.9 c -15.78,-137.3 -32.1,-279.3 -65.95,-416.8 -50.7,-205.8 -223.98,-342.2 -428.35,-342.2" /><path
         class="topo-accent topo-a-9"
         d="m 4681.3,12742.5 c -1.3,-0.2 -2.6,-0.3 -3.95,-0.4 -471.9,-18.9 -718.48,-346.5 -897.43,-664.6 -172.07,-305.8 -241.97,-643.5 -287.65,-933.6 -48.77,-309.9 -59.45,-642.6 -33.55,-1047 38.85,-607.35 230.1,-1092.18 584.65,-1482.2 63.48,-69.83 129.88,-139.55 194.13,-206.97 158.25,-166.11 321.9,-337.88 458.85,-529.03 186.77,-260.75 310.7,-569.25 378.82,-943.1 13.23,-72.6 25.98,-145.32 38.7,-218.05 65.23,-372.05 132.68,-756.75 266.65,-1118.28 161.63,-436.09 395.83,-852.07 696.08,-1236.37 237.9,-304.5 465.92,-553.8 697.1,-762.3 228.4,-206 461.72,-414.3 687.37,-615.8 151.4,-135.2 302.83,-270.4 453.9,-405.9 319.18,-286.2 607.83,-481.5 908.4,-614.8 416.85,-184.7 805.05,-255.7 1186.83,-217 308.7,31.4 529.6,238.6 562.8,528 30.6,267.6 -4.6,531.8 -43.3,779.5 -48.5,310.8 -124.9,621 -198.8,921 l -26.7,108.4 c -85.9,350.9 -159.2,698.4 -213.4,961.93 -30.8,149.59 -56.2,302.67 -80.7,450.72 -17.28,103.97 -35.13,211.47 -54.65,316.65 -45.08,242.82 -92.28,500.53 -148.6,811 -39.8,219.35 -72.38,438.5 -96.83,651.3 -4.5,39.05 -9.17,78.1 -13.82,117.1 -26.88,224.7 -54.68,457.05 -45.75,688.42 9.67,251.38 37.35,511.43 82.25,772.98 31.92,186.13 74.22,372.65 115.12,553.03 36.5,160.92 74.23,327.32 104.2,491.87 40.93,224.7 42.1,438.4 3.48,635.4 -31.05,158.3 -244.25,350.6 -430.43,388.2 -209.6,42.4 -418.62,6.1 -620.75,-28.9 -40.75,-7.1 -81.45,-14.2 -122.15,-20.7 -69.37,-11 -139.77,-23.6 -207.82,-35.8 -161.3,-28.9 -328.1,-58.8 -497.5,-70.4 -314.93,-21.5 -604.63,36.8 -885.48,178.4 -188.25,94.9 -371.85,221.7 -577.8,399.1 -203.87,175.6 -398.25,366 -586.25,550.2 -123.67,121.2 -251.55,246.5 -380.62,366 -166.7,154.4 -395.35,344.2 -686.43,441.7 -53.62,18 -109.15,22.7 -167.92,27.6 -36.25,3 -73.75,6.1 -111.05,12.7 z M 9807.55,1661.2 c -327.35,0 -661.28,77.1 -1014.48,233.6 -307.97,136.6 -602.87,336 -928.07,627.6 -151.08,135.5 -302.43,270.6 -453.8,405.8 -225.7,201.5 -459.1,409.9 -687.68,616.1 -234.45,211.3 -465.37,463.8 -706,771.8 -305.07,390.5 -543.07,813.3 -707.42,1256.72 -136.38,367.98 -204.43,756.18 -270.25,1131.58 -12.7,72.55 -25.43,145.1 -38.63,217.55 -66.05,362.58 -185.72,661.02 -365.85,912.5 -133.87,186.85 -295.65,356.65 -452.12,520.9 -64.53,67.75 -131.28,137.77 -195.33,208.25 -366.57,403.27 -564.2,903.2 -604.22,1528.4 -26.25,410.2 -15.35,748.2 34.35,1063.8 46.72,296.7 118.47,642.7 296.45,959 189.17,336.1 451.12,682.6 959.87,702.9 2.45,0.1 4.7,0 6.95,-0.3 3.93,0.5 7.98,0.5 12,-0.2 34.25,-6.1 68.75,-8.9 105.25,-12 60.6,-5.1 123.25,-10.3 185.43,-31.2 304.62,-102 541.37,-298.2 713.6,-457.8 129.85,-120.3 258.1,-245.9 382.15,-367.4 187.15,-183.4 380.65,-373 582.7,-547 201.17,-173.3 379.95,-296.9 562.6,-389 268.47,-135.3 545.35,-191.1 846.72,-170.5 165.3,11.3 330.05,40.9 489.4,69.4 68.43,12.3 139.18,25 209.3,36.1 40.33,6.4 80.68,13.4 121.08,20.4 208.92,36.3 424.95,73.8 648.32,28.6 197.38,-39.9 448.6,-239.9 489.33,-447.7 40.5,-206.4 39.4,-429.7 -3.3,-663.75 -30.23,-166.18 -68.13,-333.35 -104.8,-495.07 -40.68,-179.4 -82.73,-364.93 -114.35,-549.06 -44.3,-258.27 -71.63,-515 -81.18,-763.04 -8.7,-225.33 18.73,-454.66 45.25,-676.41 4.68,-39.17 9.38,-78.3 13.88,-117.47 24.27,-211.18 56.6,-428.65 96.1,-646.4 56.3,-310.37 103.5,-567.98 148.5,-810.7 19.7,-105.87 37.6,-213.75 54.9,-318.08 24.4,-147.35 49.7,-299.69 80.2,-447.87 54.1,-262.85 127.1,-609.45 212.8,-959.15 l 26.7,-108.4 c 74.3,-301.5 151.1,-613.3 200.1,-927.3 39.5,-252.9 75.4,-522.9 43.6,-800 -37.3,-326.1 -284.6,-559.5 -629.9,-594.5 -69.8,-7.1 -139.83,-10.7 -210.15,-10.7" /><g
         transform="scale(1.28513)"><path
           class="topo-line topo-l-46"
           d="m 15917.1,10505.7 c -0.5,-0.2 -1,-0.3 -1.5,-0.4 -138.2,-33.9 -229.9,-115.1 -272.7,-241.4 -33.9,-99.8 -29.6,-197.1 12.3,-281.2 41.4,-83.3 116,-146.02 209.9,-176.64 57.7,-18.81 120.8,-14.98 168.9,10.19 127.8,66.92 213.2,184.45 228.5,314.55 13.5,115.4 -28.8,222.5 -119.2,301.6 -60.6,53 -136.9,78.1 -221.2,72.5 -1.6,-0.1 -3.5,0.2 -5,0.8 z m 22.1,-734.95 c -27.1,0 -54.7,4.26 -81.3,12.91 -99.9,32.57 -179.4,99.5 -223.7,188.48 -44.7,89.86 -49.4,193.46 -13.4,299.36 45.5,134.4 142.8,220.8 289.3,256.6 2.3,0.6 4.8,0.4 7,-0.4 1.1,0.4 2.2,0.7 3.5,0.7 90.2,6 172.6,-21 238,-78.2 95.1,-83.2 141.4,-200.6 127.1,-322.2 -16.2,-137.78 -106.2,-262.12 -240.9,-332.64 -31.1,-16.33 -67.8,-24.61 -105.6,-24.61" /></g><g
         transform="scale(1.5825)"><path
           class="topo-line topo-l-47"
           d="m 15863,2874.24 c -0.3,-0.12 -0.7,-0.25 -1,-0.31 -101,-26.73 -178.1,-79.87 -229.3,-158.11 -80.7,-123.34 -77.8,-261.04 8,-377.81 80.3,-109.45 179.6,-163.04 294.8,-158.93 191,6.7 318.3,168.41 330.9,320.95 13.9,167.58 -52.5,283.53 -203,354.37 -45.2,21.36 -92.2,20.35 -142.1,19.28 -18.1,-0.45 -36.7,-0.89 -55.2,-0.07 -1.1,0.07 -2.1,0.26 -3.1,0.63 z m 60.3,-714.43 c -116.4,-0.07 -216.5,56.05 -297.9,166.82 -90.8,123.6 -93.9,269.32 -8.6,399.75 53.9,82.21 134.7,138.07 240.4,166 2,0.57 4.1,0.44 5.8,-0.32 1.2,0.45 2.4,0.7 3.9,0.7 17.8,-0.76 36.3,-0.38 54,0 49.7,1.07 101.2,2.21 150.5,-21.04 158.6,-74.63 228.6,-196.78 213.9,-373.27 -13.2,-160.89 -147.5,-331.44 -349.2,-338.45 -4.3,-0.13 -8.6,-0.19 -12.8,-0.19" /></g><g
         transform="scale(1.61189)"><path
           class="topo-line topo-l-48"
           d="m 15587.4,3073.1 c -26.9,-11.17 -55.4,-16.19 -82.9,-20.97 -24.7,-4.34 -50.2,-8.81 -74,-17.74 -237.1,-88.53 -378.1,-242.39 -419.1,-457.35 -23.2,-121.41 3.6,-251.51 77.5,-376.39 107.1,-180.85 232.7,-289.17 395.5,-340.91 190.9,-60.55 364,-16.31 514.4,131.59 108.2,106.39 176.8,225.88 209.6,365.16 71.2,302 -75,578.14 -363.6,687.08 -72.8,27.55 -160.3,37.54 -253.1,28.91 -1.5,-0.19 -2.9,0.12 -4.3,0.62 z m 58.8,-1258.58 c -54.2,0 -110,9.12 -167.4,27.36 -167.4,53.1 -296.4,164.09 -405.9,349.21 -76.3,128.79 -103.9,263.55 -79.8,389.48 42.3,221.85 187.3,380.49 430.9,471.44 25.4,9.49 51.7,14.14 77.2,18.61 27.9,4.84 54.1,9.49 79.3,19.92 2.3,0.99 4.8,0.93 6.9,0.06 0.8,0.31 1.7,0.49 2.6,0.62 95.5,8.74 185.9,-1.55 261.3,-30.03 297.9,-112.48 448.7,-397.42 375.2,-709.04 -33.6,-142.88 -103.9,-265.28 -214.7,-374.28 -110.5,-108.7 -233,-163.35 -365.6,-163.35" /></g><g
         transform="scale(1.31855)"><path
           class="topo-line topo-l-49"
           d="m 15463.8,10579 c -0.3,-0.1 -0.4,-0.2 -0.6,-0.3 -27,-8.8 -54.6,-16.1 -81.4,-23.1 -65,-17 -126.5,-33.1 -182.8,-71.2 -207.6,-140.6 -325.9,-320.9 -361.6,-550.99 -38.4,-247.76 -5.5,-464.88 100.6,-663.77 110.2,-206.6 282.6,-307.4 512.9,-299.93 142.3,4.72 274.7,51.46 383,135.21 202.9,156.89 330.7,363.44 379.9,613.87 60.9,309.21 -101.5,650.91 -377.6,794.81 -104.1,54.1 -224.2,75.3 -367.4,64.6 -1.7,-0.1 -3.4,0.1 -5,0.8 z m -37.2,-1632.65 c -227,0 -398.1,105.02 -508.7,312.45 -108.6,203.46 -142.2,425.28 -103,678.13 36.7,236.77 158.2,422.07 371.5,566.47 59.4,40.3 125.6,57.7 189.7,74.4 26.4,7 53.7,14.1 80,22.8 2.6,0.8 5.3,0.7 7.7,-0.3 1,0.4 2.2,0.7 3.3,0.8 147.4,11 271.7,-10.9 379.5,-67.1 289.6,-150.9 453.4,-495.6 389.6,-819.66 -50.3,-256.08 -181.1,-467.25 -388.4,-627.63 -112.1,-86.66 -249.1,-135.07 -396.2,-139.95 -8.4,-0.25 -16.7,-0.41 -25,-0.41" /></g><g
         transform="scale(1.11061)"><path
           class="topo-line topo-l-50"
           d="m 13919.9,0 c -56.5,120.567 -48.3,255.445 20.3,415.63 155.2,362.502 449,607.05 873.2,726.81 45,12.78 92.2,17.56 137.7,22.15 56.5,5.76 114.8,11.71 170.4,32.68 0,0 0,0.09 0.1,0.09 1.1,-0.45 2.2,-0.72 3.4,-0.81 33.2,-4.05 66.7,-7.11 100.3,-10.17 70.9,-6.48 144.4,-13.24 213.5,-29.71 385.1,-91.85 642.9,-311.637 766.7,-653.162 67.8,-187.644 68.8,-355.929 3.6,-503.508 h 27.7 c 63.2,151.99 62.1,325.047 -6,512.782 -125.1,345.757 -396.9,577.608 -785.7,670.448 -71.1,16.93 -145.5,23.68 -217.4,30.25 -33.2,3.06 -66.5,6.03 -99.5,10.09 -2.2,0.26 -4.5,0 -6.6,-0.82 -3,1.18 -6.4,1.26 -9.7,0.1 -52.2,-19.81 -106.3,-25.31 -163.5,-31.16 -46.7,-4.77 -95,-9.63 -142.3,-22.96 -432.4,-122.09 -732.1,-371.869 -890.7,-742.387 -69.5,-161.982 -78.3,-301.545 -24,-426.343 h 28.5" /></g><g
         transform="scale(1.63261)"><path
           class="topo-line topo-l-51"
           d="m 15389.6,3243.03 c 0,-0.03 -0.1,-0.06 -0.2,-0.09 -35.1,-12.76 -71.9,-17.56 -107.5,-22.21 -29.2,-3.82 -59.4,-7.77 -88.1,-16.1 -225.9,-65.56 -411.2,-190.37 -551,-370.88 -110.3,-142.59 -140.8,-319.49 -90.9,-525.85 39.1,-161.09 126.8,-318.02 276.2,-493.87 89.9,-105.9 193,-196.74 315,-277.77 91.2,-60.52 193.8,-90.84 296.6,-87.9 120.6,3.55 236,52.61 343.2,145.9 209.2,182.1 345.4,389.25 404.8,615.76 92.6,352.63 30.2,624.71 -190.7,831.68 -109.5,102.63 -247.5,166.48 -410.3,189.85 -45.5,6.52 -91.5,7.73 -136,8.89 -19.3,0.52 -38.7,1.03 -58.1,1.95 -1.1,0.06 -2,0.28 -3,0.64 z m 36.2,-1813.41 c -101.8,0 -202.7,31.36 -292.8,91.2 -123.5,81.95 -227.8,173.95 -318.8,281.14 -151.5,178.12 -240.4,337.5 -280.1,501.53 -51.4,212.18 -19.7,394.4 94.2,541.65 142.1,183.7 330.7,310.63 560.4,377.29 30,8.74 61,12.76 90.8,16.67 36.2,4.75 70.4,9.22 103.7,21.28 2.1,0.81 4.4,0.7 6.4,-0.09 1.2,0.45 2.3,0.65 3.8,0.63 19.3,-0.92 38.6,-1.42 57.8,-1.93 45.1,-1.2 91.5,-2.42 138.2,-9.1 166.4,-23.9 307.8,-89.36 420.1,-194.59 226.4,-212.12 290.5,-490.14 196.1,-849.99 -60.5,-230.19 -198.6,-440.46 -410.7,-625.08 -110.4,-96.16 -229.8,-146.76 -354.7,-150.37 -4.8,-0.18 -9.6,-0.24 -14.4,-0.24" /></g><g
         transform="scale(1.33785)"><path
           class="topo-line topo-l-52"
           d="m 15207.9,10665.4 c -0.5,-0.3 -1,-0.4 -1.5,-0.5 -21.7,-5.1 -43.6,-9.5 -65.5,-13.9 -46.1,-9.2 -93.8,-18.7 -137.7,-34.7 -284.2,-103.4 -493.7,-305 -622.9,-599.1 -76,-173.11 -102.3,-356.62 -119.5,-529.11 -6.2,-63.29 -5.9,-127.9 -5.5,-190.35 0.4,-73.74 0.9,-149.96 -9.7,-224.41 -11.2,-78.61 -11.3,-159.26 -11.5,-237.26 -0.2,-92.39 -0.3,-187.92 -18.6,-281.52 -35.7,-182.18 -72.5,-370.56 -214.7,-524.53 -73.1,-79.24 -160.3,-128.94 -252.7,-181.59 l -21.8,-12.4 c -160.3,-91.31 -326.1,-185.71 -447.2,-330.44 l -9.5,-11.21 c -35.3,-41.8 -68.8,-81.31 -72,-141.07 -3.2,-57.94 17.9,-110.06 57.9,-142.97 40.2,-33.17 93.8,-43.22 151,-28.35 150.6,39.29 275.3,103.17 370.7,189.84 105.9,96.17 190.1,180.87 265,266.58 126.7,145.13 304.6,251.13 543.7,324.09 88,26.82 178,51.41 265.3,75.19 128.7,35.11 261.8,71.42 389.9,115.54 419.1,144.27 710,418.08 889.3,837.09 106.1,248.24 147,509.98 124.5,800.19 -15.1,196.1 -95.7,383.59 -233.3,542.29 -139.4,160.7 -297.6,259.7 -483.7,302.8 -110.3,25.6 -221.6,28.3 -325.9,29 -1.4,0 -2.9,0.2 -4.1,0.8 z M 13356.8,7152.82 c -43.2,0 -83.7,13.7 -115.6,40.01 -45.5,37.52 -69.7,96.48 -66.1,161.71 3.6,67.39 41.1,111.68 77.4,154.53 l 9.4,11.11 c 123.7,147.83 291.3,243.25 453.4,335.54 l 21.7,12.41 c 90.8,51.74 176.6,100.61 247.3,177.29 137.8,149.26 174.1,334.43 209.1,513.5 17.9,91.46 18.1,185.88 18.2,277.2 0.2,78.77 0.4,160.23 11.8,240.42 10.3,72.77 9.8,148.15 9.4,221.07 -0.4,63.03 -0.7,128.25 5.7,192.74 17.3,174.36 44,359.97 121.3,536.05 131.7,299.9 345.6,505.6 635.8,611.2 45.4,16.5 94,26.2 140.9,35.6 21.7,4.4 43.3,8.7 64.8,13.7 2.2,0.5 4.6,0.3 6.6,-0.5 1.3,0.5 2.7,0.8 4.1,0.8 0.1,0 0.1,0 0.1,0 105.7,-0.7 218.2,-3.5 330.9,-29.5 190.8,-44.2 352.9,-145.6 495.5,-310.1 140.8,-162.3 223.4,-354.34 238.9,-555.35 22.6,-293.95 -18.7,-559.19 -126.4,-810.88 -181.9,-425.22 -477.2,-703.1 -902.5,-849.55 -128.9,-44.36 -262.4,-80.76 -391.5,-115.97 -87,-23.73 -176.9,-48.27 -264.6,-75.01 -238.2,-72.69 -407.7,-173.53 -533.4,-317.38 -75.4,-86.36 -160.2,-171.67 -266.7,-268.43 -98.1,-89.11 -226,-154.71 -380.2,-194.94 -18.6,-4.87 -37.2,-7.27 -55.3,-7.27" /></g><g
         transform="scale(1.66455)"><path
           class="topo-line topo-l-53"
           d="m 16281.7,9011.43 c 0.2,-13.23 0.2,-26.58 -0.2,-40.13 -5.7,-204.95 -104.8,-356.22 -286.6,-437.47 -215.9,-96.48 -446.9,-94.05 -668.1,7.06 -215.3,98.46 -345.8,263.9 -378.4,470.54 h -18.4 c 32.5,-214 166.9,-385.36 389.4,-487.11 115.6,-52.88 233.9,-79.33 351.5,-79.33 112.1,0 223.5,24.06 331.3,72.21 188.7,84.3 291.6,241.16 297.3,453.59 0.4,13.71 0.5,27.25 0.3,40.64 h -18.1" /></g><g
         transform="scale(1.63633)"><path
           class="topo-line topo-l-54"
           d="m 16280.8,9166.88 c -5.3,-19.25 -12,-38.12 -20.6,-56.27 -89.3,-186.1 -292.5,-268.36 -517.8,-209.51 -121.7,31.8 -246.4,129.06 -301.5,265.78 h -19.7 c 56,-146.07 187.9,-250.07 316.6,-283.68 50,-13.07 99,-19.41 146.1,-19.41 173.1,0 319.5,85.91 392.8,238.79 9.9,20.7 17.6,42.26 23.3,64.3 h -19.2" /></g></g></g></svg>